%FSLAX23Y23*%
%MOIN*%
G70*
G01*
G75*
G04 Layer_Color=65535*
%ADD10C,0.008*%
%ADD11R,0.037X0.035*%
%ADD12R,0.037X0.035*%
%ADD13R,0.045X0.069*%
%ADD14R,0.094X0.039*%
%ADD15R,0.094X0.130*%
%ADD16R,0.047X0.047*%
%ADD17R,0.057X0.094*%
%ADD18R,0.069X0.045*%
%ADD19R,0.043X0.067*%
%ADD20R,0.047X0.047*%
%ADD21R,0.050X0.100*%
%ADD22R,0.055X0.047*%
%ADD23R,0.055X0.043*%
%ADD24R,0.067X0.043*%
%ADD25O,0.087X0.024*%
%ADD26R,0.043X0.055*%
%ADD27O,0.065X0.022*%
%ADD28O,0.022X0.065*%
%ADD29O,0.010X0.083*%
%ADD30R,0.035X0.037*%
%ADD31R,0.035X0.037*%
%ADD32O,0.024X0.087*%
%ADD33C,0.059*%
%ADD34R,0.010X0.035*%
%ADD35R,0.035X0.010*%
%ADD36C,0.010*%
%ADD37C,0.020*%
%ADD38C,0.012*%
%ADD39C,0.015*%
%ADD40C,0.005*%
%ADD41R,0.059X0.059*%
%ADD42R,0.047X0.047*%
%ADD43C,0.047*%
%ADD44R,0.059X0.059*%
%ADD45R,0.047X0.047*%
%ADD46C,0.060*%
%ADD47R,0.060X0.060*%
%ADD48C,0.063*%
%ADD49C,0.039*%
%ADD50C,0.051*%
%ADD51C,0.079*%
%ADD52C,0.024*%
%ADD53C,0.010*%
%ADD54C,0.024*%
%ADD55C,0.008*%
%ADD56C,0.004*%
%ADD57C,0.016*%
%ADD58C,0.007*%
%ADD59C,0.020*%
%ADD60C,0.006*%
D10*
X1952Y1578D02*
X1947Y1572D01*
Y1560D01*
X1952Y1554D01*
X1976D01*
X1982Y1560D01*
Y1572D01*
X1976Y1578D01*
X1982Y1589D02*
Y1601D01*
Y1595D01*
X1947D01*
X1952Y1589D01*
Y1619D02*
X1947Y1624D01*
Y1636D01*
X1952Y1642D01*
X1958D01*
X1964Y1636D01*
Y1630D01*
Y1636D01*
X1970Y1642D01*
X1976D01*
X1982Y1636D01*
Y1624D01*
X1976Y1619D01*
X1481Y1567D02*
X1475Y1561D01*
Y1550D01*
X1481Y1544D01*
X1504D01*
X1510Y1550D01*
Y1561D01*
X1504Y1567D01*
X1510Y1579D02*
Y1591D01*
Y1585D01*
X1475D01*
X1481Y1579D01*
X1510Y1631D02*
Y1608D01*
X1487Y1631D01*
X1481D01*
X1475Y1626D01*
Y1614D01*
X1481Y1608D01*
X-2205Y1110D02*
X-2199D01*
X-2187Y1122D01*
X-2199Y1133D01*
X-2205D01*
X-2187Y1122D02*
X-2170D01*
Y1145D02*
Y1157D01*
Y1151D01*
X-2205D01*
X-2199Y1145D01*
X2095Y1364D02*
X2124D01*
X2130Y1370D01*
Y1381D01*
X2124Y1387D01*
X2095D01*
Y1422D02*
X2101Y1411D01*
X2113Y1399D01*
X2124D01*
X2130Y1405D01*
Y1416D01*
X2124Y1422D01*
X2118D01*
X2113Y1416D01*
Y1399D01*
X1615Y1364D02*
X1644D01*
X1650Y1370D01*
Y1381D01*
X1644Y1387D01*
X1615D01*
Y1422D02*
Y1399D01*
X1633D01*
X1627Y1411D01*
Y1416D01*
X1633Y1422D01*
X1644D01*
X1650Y1416D01*
Y1405D01*
X1644Y1399D01*
X-1860Y1510D02*
Y1481D01*
X-1854Y1475D01*
X-1843D01*
X-1837Y1481D01*
Y1510D01*
X-1808Y1475D02*
Y1510D01*
X-1825Y1492D01*
X-1802D01*
X-2300Y1440D02*
X-2335D01*
Y1457D01*
X-2329Y1463D01*
X-2317D01*
X-2312Y1457D01*
Y1440D01*
Y1452D02*
X-2300Y1463D01*
Y1475D02*
Y1487D01*
Y1481D01*
X-2335D01*
X-2329Y1475D01*
X-2300Y1504D02*
Y1516D01*
Y1510D01*
X-2335D01*
X-2329Y1504D01*
X-2300Y1640D02*
X-2335D01*
Y1657D01*
X-2329Y1663D01*
X-2317D01*
X-2312Y1657D01*
Y1640D01*
Y1652D02*
X-2300Y1663D01*
Y1675D02*
Y1687D01*
Y1681D01*
X-2335D01*
X-2329Y1675D01*
Y1704D02*
X-2335Y1710D01*
Y1722D01*
X-2329Y1727D01*
X-2306D01*
X-2300Y1722D01*
Y1710D01*
X-2306Y1704D01*
X-2329D01*
X-1840Y1390D02*
X-1875D01*
Y1407D01*
X-1869Y1413D01*
X-1857D01*
X-1852Y1407D01*
Y1390D01*
Y1402D02*
X-1840Y1413D01*
X-1846Y1425D02*
X-1840Y1431D01*
Y1442D01*
X-1846Y1448D01*
X-1869D01*
X-1875Y1442D01*
Y1431D01*
X-1869Y1425D01*
X-1863D01*
X-1857Y1431D01*
Y1448D01*
X-1420Y1850D02*
X-1385D01*
Y1833D01*
X-1391Y1827D01*
X-1403D01*
X-1408Y1833D01*
Y1850D01*
X-1385Y1815D02*
Y1792D01*
X-1391D01*
X-1414Y1815D01*
X-1420D01*
X1442Y93D02*
X1436Y87D01*
Y76D01*
X1442Y70D01*
X1465D01*
X1471Y76D01*
Y87D01*
X1465Y93D01*
X1471Y105D02*
Y117D01*
Y111D01*
X1436D01*
X1442Y105D01*
X1471Y134D02*
Y146D01*
Y140D01*
X1436D01*
X1442Y134D01*
X-2329Y1143D02*
X-2335Y1137D01*
Y1126D01*
X-2329Y1120D01*
X-2306D01*
X-2300Y1126D01*
Y1137D01*
X-2306Y1143D01*
X-2300Y1155D02*
Y1167D01*
Y1161D01*
X-2335D01*
X-2329Y1155D01*
Y1184D02*
X-2335Y1190D01*
Y1202D01*
X-2329Y1207D01*
X-2306D01*
X-2300Y1202D01*
Y1190D01*
X-2306Y1184D01*
X-2329D01*
Y1303D02*
X-2335Y1297D01*
Y1286D01*
X-2329Y1280D01*
X-2306D01*
X-2300Y1286D01*
Y1297D01*
X-2306Y1303D01*
Y1315D02*
X-2300Y1321D01*
Y1332D01*
X-2306Y1338D01*
X-2329D01*
X-2335Y1332D01*
Y1321D01*
X-2329Y1315D01*
X-2323D01*
X-2317Y1321D01*
Y1338D01*
X-1939Y1168D02*
X-1945Y1162D01*
Y1151D01*
X-1939Y1145D01*
X-1916D01*
X-1910Y1151D01*
Y1162D01*
X-1916Y1168D01*
X-1939Y1180D02*
X-1945Y1186D01*
Y1197D01*
X-1939Y1203D01*
X-1933D01*
X-1927Y1197D01*
X-1922Y1203D01*
X-1916D01*
X-1910Y1197D01*
Y1186D01*
X-1916Y1180D01*
X-1922D01*
X-1927Y1186D01*
X-1933Y1180D01*
X-1939D01*
X-1927Y1186D02*
Y1197D01*
X-1697Y1529D02*
X-1703Y1535D01*
X-1714D01*
X-1720Y1529D01*
Y1506D01*
X-1714Y1500D01*
X-1703D01*
X-1697Y1506D01*
X-1685Y1535D02*
X-1662D01*
Y1529D01*
X-1685Y1506D01*
Y1500D01*
X-1429Y1445D02*
X-1435Y1439D01*
Y1428D01*
X-1429Y1422D01*
X-1406D01*
X-1400Y1428D01*
Y1439D01*
X-1406Y1445D01*
X-1435Y1480D02*
X-1429Y1469D01*
X-1417Y1457D01*
X-1406D01*
X-1400Y1463D01*
Y1474D01*
X-1406Y1480D01*
X-1412D01*
X-1417Y1474D01*
Y1457D01*
X1533Y121D02*
Y92D01*
X1539Y86D01*
X1550D01*
X1556Y92D01*
Y121D01*
X1568Y115D02*
X1574Y121D01*
X1585D01*
X1591Y115D01*
Y109D01*
X1585Y103D01*
X1580D01*
X1585D01*
X1591Y98D01*
Y92D01*
X1585Y86D01*
X1574D01*
X1568Y92D01*
X1515Y650D02*
Y621D01*
X1521Y615D01*
X1532D01*
X1538Y621D01*
Y650D01*
X1573Y615D02*
X1550D01*
X1573Y638D01*
Y644D01*
X1567Y650D01*
X1556D01*
X1550Y644D01*
X1957Y134D02*
X1992D01*
Y116D01*
X1986Y111D01*
X1974D01*
X1969Y116D01*
Y134D01*
Y122D02*
X1957Y111D01*
X1992Y99D02*
Y76D01*
X1986D01*
X1963Y99D01*
X1957D01*
X1857Y129D02*
X1892D01*
Y112D01*
X1886Y106D01*
X1874D01*
X1869Y112D01*
Y129D01*
Y117D02*
X1857Y106D01*
X1892Y71D02*
X1886Y82D01*
X1874Y94D01*
X1863D01*
X1857Y88D01*
Y77D01*
X1863Y71D01*
X1869D01*
X1874Y77D01*
Y94D01*
X1857Y606D02*
X1892D01*
Y588D01*
X1886Y583D01*
X1874D01*
X1869Y588D01*
Y606D01*
Y594D02*
X1857Y583D01*
X1892Y548D02*
Y571D01*
X1874D01*
X1880Y559D01*
Y553D01*
X1874Y548D01*
X1863D01*
X1857Y553D01*
Y565D01*
X1863Y571D01*
X1460Y565D02*
X1425D01*
Y583D01*
X1431Y588D01*
X1443D01*
X1448Y583D01*
Y565D01*
Y577D02*
X1460Y588D01*
Y618D02*
X1425D01*
X1443Y600D01*
Y623D01*
X1375Y65D02*
X1340D01*
Y82D01*
X1346Y88D01*
X1358D01*
X1363Y82D01*
Y65D01*
Y77D02*
X1375Y88D01*
X1346Y100D02*
X1340Y106D01*
Y117D01*
X1346Y123D01*
X1352D01*
X1358Y117D01*
Y112D01*
Y117D01*
X1363Y123D01*
X1369D01*
X1375Y117D01*
Y106D01*
X1369Y100D01*
X3020Y-1450D02*
Y-1485D01*
X3003D01*
X2997Y-1479D01*
Y-1467D01*
X3003Y-1462D01*
X3020D01*
X2968Y-1450D02*
Y-1485D01*
X2985Y-1467D01*
X2962D01*
X1988Y532D02*
X1994Y537D01*
Y549D01*
X1988Y555D01*
X1965D01*
X1959Y549D01*
Y537D01*
X1965Y532D01*
X1994Y497D02*
Y520D01*
X1976D01*
X1982Y508D01*
Y502D01*
X1976Y497D01*
X1965D01*
X1959Y502D01*
Y514D01*
X1965Y520D01*
X1336Y398D02*
X1330Y392D01*
Y381D01*
X1336Y375D01*
X1359D01*
X1365Y381D01*
Y392D01*
X1359Y398D01*
X1336Y410D02*
X1330Y416D01*
Y427D01*
X1336Y433D01*
X1342D01*
X1348Y427D01*
Y422D01*
Y427D01*
X1353Y433D01*
X1359D01*
X1365Y427D01*
Y416D01*
X1359Y410D01*
X-97Y148D02*
Y119D01*
X-91Y113D01*
X-80D01*
X-74Y119D01*
Y148D01*
X-62Y113D02*
X-50D01*
X-56D01*
Y148D01*
X-62Y142D01*
X-3237Y-211D02*
X-3243Y-205D01*
X-3254D01*
X-3260Y-211D01*
Y-217D01*
X-3254Y-223D01*
X-3243D01*
X-3237Y-228D01*
Y-234D01*
X-3243Y-240D01*
X-3254D01*
X-3260Y-234D01*
X-3225Y-205D02*
Y-240D01*
X-3213Y-228D01*
X-3202Y-240D01*
Y-205D01*
X-3190Y-240D02*
X-3178D01*
X-3184D01*
Y-205D01*
X-3190Y-211D01*
X2450Y-1320D02*
Y-1355D01*
X2433D01*
X2427Y-1349D01*
Y-1337D01*
X2433Y-1332D01*
X2450D01*
X2438D02*
X2427Y-1320D01*
X2392D02*
X2415D01*
X2392Y-1343D01*
Y-1349D01*
X2398Y-1355D01*
X2409D01*
X2415Y-1349D01*
X2380Y-1314D02*
X2357D01*
X2345Y-1355D02*
Y-1320D01*
Y-1337D01*
X2322D01*
Y-1355D01*
Y-1320D01*
X2310Y-1355D02*
Y-1320D01*
X2293D01*
X2287Y-1326D01*
Y-1332D01*
X2293Y-1337D01*
X2310D01*
X2293D01*
X2287Y-1343D01*
Y-1349D01*
X2293Y-1355D01*
X2310D01*
X2252Y-1320D02*
X2275D01*
X2252Y-1343D01*
Y-1349D01*
X2258Y-1355D01*
X2269D01*
X2275Y-1349D01*
X-1766Y-1310D02*
Y-1345D01*
X-1783D01*
X-1789Y-1339D01*
Y-1327D01*
X-1783Y-1322D01*
X-1766D01*
X-1778D02*
X-1789Y-1310D01*
X-1824D02*
X-1801D01*
X-1824Y-1333D01*
Y-1339D01*
X-1818Y-1345D01*
X-1807D01*
X-1801Y-1339D01*
X-1836Y-1304D02*
X-1859D01*
X-1871Y-1345D02*
Y-1310D01*
Y-1327D01*
X-1894D01*
Y-1345D01*
Y-1310D01*
X-1906Y-1345D02*
Y-1310D01*
X-1923D01*
X-1929Y-1316D01*
Y-1322D01*
X-1923Y-1327D01*
X-1906D01*
X-1923D01*
X-1929Y-1333D01*
Y-1339D01*
X-1923Y-1345D01*
X-1906D01*
X-1941Y-1310D02*
X-1953D01*
X-1947D01*
Y-1345D01*
X-1941Y-1339D01*
X2210Y-1320D02*
Y-1355D01*
X2193D01*
X2187Y-1349D01*
Y-1337D01*
X2193Y-1332D01*
X2210D01*
X2198D02*
X2187Y-1320D01*
X2175D02*
X2163D01*
X2169D01*
Y-1355D01*
X2175Y-1349D01*
X2146Y-1314D02*
X2123D01*
X2111Y-1355D02*
Y-1320D01*
Y-1337D01*
X2088D01*
Y-1355D01*
Y-1320D01*
X2076Y-1355D02*
Y-1320D01*
X2058D01*
X2053Y-1326D01*
Y-1332D01*
X2058Y-1337D01*
X2076D01*
X2058D01*
X2053Y-1343D01*
Y-1349D01*
X2058Y-1355D01*
X2076D01*
X2018Y-1320D02*
X2041D01*
X2018Y-1343D01*
Y-1349D01*
X2023Y-1355D01*
X2035D01*
X2041Y-1349D01*
X-2020Y-1310D02*
Y-1345D01*
X-2037D01*
X-2043Y-1339D01*
Y-1327D01*
X-2037Y-1322D01*
X-2020D01*
X-2032D02*
X-2043Y-1310D01*
X-2055D02*
X-2067D01*
X-2061D01*
Y-1345D01*
X-2055Y-1339D01*
X-2084Y-1304D02*
X-2107D01*
X-2119Y-1345D02*
Y-1310D01*
Y-1327D01*
X-2142D01*
Y-1345D01*
Y-1310D01*
X-2154Y-1345D02*
Y-1310D01*
X-2172D01*
X-2177Y-1316D01*
Y-1322D01*
X-2172Y-1327D01*
X-2154D01*
X-2172D01*
X-2177Y-1333D01*
Y-1339D01*
X-2172Y-1345D01*
X-2154D01*
X-2189Y-1310D02*
X-2201D01*
X-2195D01*
Y-1345D01*
X-2189Y-1339D01*
X-1295Y1480D02*
Y1515D01*
X-1278D01*
X-1272Y1509D01*
Y1497D01*
X-1278Y1492D01*
X-1295D01*
X-1260Y1509D02*
X-1254Y1515D01*
X-1243D01*
X-1237Y1509D01*
Y1503D01*
X-1243Y1497D01*
X-1248D01*
X-1243D01*
X-1237Y1492D01*
Y1486D01*
X-1243Y1480D01*
X-1254D01*
X-1260Y1486D01*
X-497Y-201D02*
X-462D01*
Y-218D01*
X-468Y-224D01*
X-480D01*
X-485Y-218D01*
Y-201D01*
X-497Y-236D02*
Y-248D01*
Y-242D01*
X-462D01*
X-468Y-236D01*
X3036Y-1167D02*
Y-1132D01*
Y-1149D01*
X3013D01*
Y-1167D01*
Y-1132D01*
X3001Y-1167D02*
Y-1132D01*
X2984D01*
X2978Y-1138D01*
Y-1144D01*
X2984Y-1149D01*
X3001D01*
X2984D01*
X2978Y-1155D01*
Y-1161D01*
X2984Y-1167D01*
X3001D01*
X2966Y-1126D02*
X2943D01*
X2931Y-1167D02*
Y-1132D01*
Y-1149D01*
X2908D01*
Y-1167D01*
Y-1132D01*
X2896Y-1167D02*
Y-1132D01*
X2879D01*
X2873Y-1138D01*
Y-1144D01*
X2879Y-1149D01*
X2896D01*
X2879D01*
X2873Y-1155D01*
Y-1161D01*
X2879Y-1167D01*
X2896D01*
X2838Y-1132D02*
X2861D01*
X2838Y-1155D01*
Y-1161D01*
X2844Y-1167D01*
X2855D01*
X2861Y-1161D01*
X-2846Y-1161D02*
Y-1126D01*
Y-1143D01*
X-2869D01*
Y-1161D01*
Y-1126D01*
X-2881Y-1161D02*
Y-1126D01*
X-2898D01*
X-2904Y-1132D01*
Y-1138D01*
X-2898Y-1143D01*
X-2881D01*
X-2898D01*
X-2904Y-1149D01*
Y-1155D01*
X-2898Y-1161D01*
X-2881D01*
X-2916Y-1120D02*
X-2939D01*
X-2951Y-1161D02*
Y-1126D01*
Y-1143D01*
X-2974D01*
Y-1161D01*
Y-1126D01*
X-2986Y-1161D02*
Y-1126D01*
X-3003D01*
X-3009Y-1132D01*
Y-1138D01*
X-3003Y-1143D01*
X-2986D01*
X-3003D01*
X-3009Y-1149D01*
Y-1155D01*
X-3003Y-1161D01*
X-2986D01*
X-3021Y-1126D02*
X-3033D01*
X-3027D01*
Y-1161D01*
X-3021Y-1155D01*
X32Y193D02*
X26Y199D01*
X15D01*
X9Y193D01*
Y170D01*
X15Y164D01*
X26D01*
X32Y170D01*
X67Y164D02*
X44D01*
X67Y187D01*
Y193D01*
X61Y199D01*
X50D01*
X44Y193D01*
X-239Y-7D02*
X-245Y-13D01*
Y-24D01*
X-239Y-30D01*
X-216D01*
X-210Y-24D01*
Y-13D01*
X-216Y-7D01*
X-210Y5D02*
Y17D01*
Y11D01*
X-245D01*
X-239Y5D01*
X2075Y168D02*
X2081Y174D01*
Y185D01*
X2075Y191D01*
X2052D01*
X2046Y185D01*
Y174D01*
X2052Y168D01*
X2046Y139D02*
X2081D01*
X2063Y156D01*
Y133D01*
X3060Y-940D02*
X3025D01*
Y-923D01*
X3031Y-917D01*
X3043D01*
X3048Y-923D01*
Y-940D01*
X3025Y-882D02*
Y-905D01*
X3043D01*
X3037Y-893D01*
Y-888D01*
X3043Y-882D01*
X3054D01*
X3060Y-888D01*
Y-899D01*
X3054Y-905D01*
X2220Y40D02*
X2255D01*
Y23D01*
X2249Y17D01*
X2237D01*
X2232Y23D01*
Y40D01*
X2255Y-18D02*
X2249Y-7D01*
X2237Y5D01*
X2226D01*
X2220Y-1D01*
Y-12D01*
X2226Y-18D01*
X2232D01*
X2237Y-12D01*
Y5D01*
X1682Y78D02*
Y113D01*
X1699D01*
X1705Y107D01*
Y95D01*
X1699Y90D01*
X1682D01*
X1694D02*
X1705Y78D01*
X1717D02*
X1729D01*
X1723D01*
Y113D01*
X1717Y107D01*
X1769Y78D02*
X1746D01*
X1769Y101D01*
Y107D01*
X1764Y113D01*
X1752D01*
X1746Y107D01*
X-1432Y993D02*
X-1461D01*
X-1467Y987D01*
Y975D01*
X-1461Y969D01*
X-1432D01*
Y958D02*
Y934D01*
X-1437D01*
X-1461Y958D01*
X-1467D01*
X2747Y749D02*
X2741Y755D01*
X2730D01*
X2724Y749D01*
Y726D01*
X2730Y720D01*
X2741D01*
X2747Y726D01*
X2759Y720D02*
X2771D01*
X2765D01*
Y755D01*
X2759Y749D01*
X2806Y720D02*
Y755D01*
X2788Y737D01*
X2811D01*
X-2687Y-1658D02*
X-2652D01*
Y-1634D01*
X-2681Y-1599D02*
X-2687Y-1605D01*
Y-1617D01*
X-2681Y-1623D01*
X-2658D01*
X-2652Y-1617D01*
Y-1605D01*
X-2658Y-1599D01*
X-2687Y-1588D02*
X-2652D01*
Y-1570D01*
X-2658Y-1564D01*
X-2681D01*
X-2687Y-1570D01*
Y-1588D01*
X-2652Y-1553D02*
Y-1541D01*
Y-1547D01*
X-2687D01*
X-2681Y-1553D01*
D36*
X2619Y-1545D02*
G03*
X2619Y-1545I-118J0D01*
G01*
X2619Y1540D02*
G03*
X2619Y1540I-118J0D01*
G01*
X-2440Y-1545D02*
G03*
X-2440Y-1545I-118J0D01*
G01*
Y1540D02*
G03*
X-2440Y1540I-118J0D01*
G01*
X-2610Y990D02*
X-2380D01*
Y1170D01*
X-2610D02*
X-2380D01*
X-2610Y990D02*
Y1170D01*
X-1480Y-1910D02*
X-1080D01*
Y-1730D01*
X-1480D02*
X-1080D01*
X-1480Y-1910D02*
Y-1730D01*
X3310Y240D02*
Y640D01*
X3130D02*
X3310D01*
X3130Y240D02*
Y640D01*
Y240D02*
X3310D01*
X220Y-1910D02*
X620D01*
Y-1730D01*
X220D02*
X620D01*
X220Y-1910D02*
Y-1730D01*
X-2970Y-380D02*
Y20D01*
Y-380D02*
X-2790D01*
Y20D01*
X-2970D02*
X-2790D01*
X-1220Y2130D02*
X-820D01*
X-1220Y1950D02*
Y2130D01*
Y1950D02*
X-820D01*
Y2130D01*
X1371Y1789D02*
Y1796D01*
Y1844D02*
Y1851D01*
X2311Y1789D02*
Y1796D01*
Y1844D02*
Y1851D01*
X1831Y1789D02*
Y1796D01*
Y1844D02*
Y1851D01*
X2761Y1789D02*
Y1796D01*
Y1844D02*
Y1851D01*
X2740Y1000D02*
Y1180D01*
X2970D01*
Y1000D02*
Y1180D01*
X2740Y1000D02*
X2970D01*
X2780Y-740D02*
Y-560D01*
X3010D01*
Y-740D02*
Y-560D01*
X2780Y-740D02*
X3010D01*
X2780Y-540D02*
Y-360D01*
X3010D01*
Y-540D02*
Y-360D01*
X2780Y-540D02*
X3010D01*
X1668Y-1872D02*
X1675D01*
X1723D02*
X1730D01*
X3303Y-122D02*
Y118D01*
X3154Y-122D02*
Y118D01*
Y-122D02*
X3189D01*
X3154Y118D02*
X3189D01*
X3268D02*
X3303D01*
X3268Y-122D02*
X3303D01*
X-1120Y1060D02*
Y1460D01*
X-1300D02*
X-1120D01*
X-1300Y1060D02*
Y1460D01*
Y1060D02*
X-1120D01*
X2780Y-940D02*
Y-760D01*
X3010D01*
Y-940D02*
Y-760D01*
X2780Y-940D02*
X3010D01*
X1464Y-1871D02*
X1471D01*
X1409D02*
X1416D01*
X1224D02*
X1231D01*
X1169D02*
X1176D01*
X-3303Y122D02*
X-3268D01*
X-3303Y-118D02*
X-3268D01*
X-3189D02*
X-3154D01*
X-3189Y122D02*
X-3154D01*
Y-118D02*
Y122D01*
X-3303Y-118D02*
Y122D01*
X-1820Y-1910D02*
X-1500D01*
Y-1730D01*
X-1820D02*
X-1500D01*
X-1820Y-1910D02*
Y-1730D01*
X3290Y-620D02*
Y-300D01*
X3110D02*
X3290D01*
X3110Y-620D02*
Y-300D01*
Y-620D02*
X3290D01*
X-520Y-1910D02*
X-200D01*
Y-1730D01*
X-520D02*
X-200D01*
X-520Y-1910D02*
Y-1730D01*
X-2970Y40D02*
Y360D01*
Y40D02*
X-2790D01*
Y360D01*
X-2970D02*
X-2790D01*
X680Y2130D02*
X1000D01*
X680Y1950D02*
Y2130D01*
Y1950D02*
X1000D01*
Y2130D01*
X-1640Y-1680D02*
Y-1645D01*
X-1623D01*
X-1617Y-1651D01*
Y-1663D01*
X-1623Y-1668D01*
X-1640D01*
X-1628D02*
X-1617Y-1680D01*
X-1582Y-1645D02*
X-1605D01*
Y-1663D01*
X-1593Y-1657D01*
X-1588D01*
X-1582Y-1663D01*
Y-1674D01*
X-1588Y-1680D01*
X-1599D01*
X-1605Y-1674D01*
X-1570Y-1651D02*
X-1564Y-1645D01*
X-1553D01*
X-1547Y-1651D01*
Y-1674D01*
X-1553Y-1680D01*
X-1564D01*
X-1570Y-1674D01*
Y-1651D01*
X-808Y-752D02*
Y-718D01*
X-790D01*
X-784Y-723D01*
Y-735D01*
X-790Y-741D01*
X-808D01*
X-796D02*
X-784Y-752D01*
X-755D02*
Y-718D01*
X-773Y-735D01*
X-749D01*
X-738Y-747D02*
X-732Y-752D01*
X-720D01*
X-714Y-747D01*
Y-723D01*
X-720Y-718D01*
X-732D01*
X-738Y-723D01*
Y-729D01*
X-732Y-735D01*
X-714D01*
X-1640Y-1580D02*
Y-1545D01*
X-1623D01*
X-1617Y-1551D01*
Y-1563D01*
X-1623Y-1568D01*
X-1640D01*
X-1628D02*
X-1617Y-1580D01*
X-1588D02*
Y-1545D01*
X-1605Y-1563D01*
X-1582D01*
X-1570Y-1551D02*
X-1564Y-1545D01*
X-1553D01*
X-1547Y-1551D01*
Y-1557D01*
X-1553Y-1563D01*
X-1558D01*
X-1553D01*
X-1547Y-1568D01*
Y-1574D01*
X-1553Y-1580D01*
X-1564D01*
X-1570Y-1574D01*
X3067Y-1034D02*
X3043D01*
X3038Y-1040D01*
Y-1052D01*
X3043Y-1058D01*
X3067D01*
X3072Y-1052D01*
Y-1040D01*
X3061Y-1046D02*
X3072Y-1034D01*
Y-1040D02*
X3067Y-1034D01*
X3038Y-999D02*
X3043Y-1011D01*
X3055Y-1023D01*
X3067D01*
X3072Y-1017D01*
Y-1005D01*
X3067Y-999D01*
X3061D01*
X3055Y-1005D01*
Y-1023D01*
X-3341Y-611D02*
X-3365D01*
X-3370Y-617D01*
Y-629D01*
X-3365Y-635D01*
X-3341D01*
X-3336Y-629D01*
Y-617D01*
X-3347Y-623D02*
X-3336Y-611D01*
Y-617D02*
X-3341Y-611D01*
X-3370Y-576D02*
Y-600D01*
X-3353D01*
X-3359Y-588D01*
Y-582D01*
X-3353Y-576D01*
X-3341D01*
X-3336Y-582D01*
Y-594D01*
X-3341Y-600D01*
X200Y-1103D02*
X177Y-1080D01*
X188Y-1092D01*
X177Y-1103D01*
X200Y-1080D01*
X165Y-1115D02*
Y-1080D01*
X148D01*
X142Y-1086D01*
Y-1092D01*
X148Y-1097D01*
X165D01*
X148D01*
X142Y-1103D01*
Y-1109D01*
X148Y-1115D01*
X165D01*
X113Y-1080D02*
X124D01*
X130Y-1086D01*
Y-1097D01*
X124Y-1103D01*
X113D01*
X107Y-1097D01*
Y-1092D01*
X130D01*
X78Y-1080D02*
X89D01*
X95Y-1086D01*
Y-1097D01*
X89Y-1103D01*
X78D01*
X72Y-1097D01*
Y-1092D01*
X95D01*
X-2255Y-1775D02*
Y-1740D01*
X-2238D01*
X-2232Y-1746D01*
Y-1758D01*
X-2238Y-1763D01*
X-2255D01*
X-2197Y-1775D02*
X-2220D01*
X-2197Y-1752D01*
Y-1746D01*
X-2203Y-1740D01*
X-2214D01*
X-2220Y-1746D01*
X-2185Y-1775D02*
X-2173D01*
X-2179D01*
Y-1740D01*
X-2185Y-1746D01*
X-2270Y-1900D02*
Y-1865D01*
X-2253D01*
X-2247Y-1871D01*
Y-1883D01*
X-2253Y-1888D01*
X-2270D01*
X-2212Y-1900D02*
X-2235D01*
X-2212Y-1877D01*
Y-1871D01*
X-2218Y-1865D01*
X-2229D01*
X-2235Y-1871D01*
X-2200D02*
X-2194Y-1865D01*
X-2183D01*
X-2177Y-1871D01*
Y-1894D01*
X-2183Y-1900D01*
X-2194D01*
X-2200Y-1894D01*
Y-1871D01*
X-2655Y994D02*
X-2689D01*
Y1012D01*
X-2684Y1018D01*
X-2672D01*
X-2666Y1012D01*
Y994D01*
X-2655Y1029D02*
Y1041D01*
Y1035D01*
X-2689D01*
X-2684Y1029D01*
Y1059D02*
X-2689Y1064D01*
Y1076D01*
X-2684Y1082D01*
X-2678D01*
X-2672Y1076D01*
X-2666Y1082D01*
X-2660D01*
X-2655Y1076D01*
Y1064D01*
X-2660Y1059D01*
X-2666D01*
X-2672Y1064D01*
X-2678Y1059D01*
X-2684D01*
X-2672Y1064D02*
Y1076D01*
X-2649Y1094D02*
Y1117D01*
X-2689Y1129D02*
X-2655D01*
X-2672D01*
Y1152D01*
X-2689D01*
X-2655D01*
X-2689Y1164D02*
X-2655D01*
Y1181D01*
X-2660Y1187D01*
X-2666D01*
X-2672Y1181D01*
Y1164D01*
Y1181D01*
X-2678Y1187D01*
X-2684D01*
X-2689Y1181D01*
Y1164D01*
X-2655Y1199D02*
Y1210D01*
Y1204D01*
X-2689D01*
X-2684Y1199D01*
X-1430Y-1125D02*
X-1418D01*
X-1424D01*
Y-1160D01*
X-1430D01*
X-1418D01*
X-1401D02*
Y-1125D01*
X-1389Y-1137D01*
X-1378Y-1125D01*
Y-1160D01*
X-1366Y-1125D02*
Y-1154D01*
X-1360Y-1160D01*
X-1348D01*
X-1343Y-1154D01*
Y-1125D01*
X-1331Y-1166D02*
X-1308D01*
X-1273Y-1131D02*
X-1278Y-1125D01*
X-1290D01*
X-1296Y-1131D01*
Y-1137D01*
X-1290Y-1143D01*
X-1278D01*
X-1273Y-1148D01*
Y-1154D01*
X-1278Y-1160D01*
X-1290D01*
X-1296Y-1154D01*
X-1261Y-1125D02*
Y-1160D01*
X-1243D01*
X-1238Y-1154D01*
Y-1131D01*
X-1243Y-1125D01*
X-1261D01*
X-1226Y-1160D02*
Y-1137D01*
X-1214Y-1125D01*
X-1203Y-1137D01*
Y-1160D01*
Y-1143D01*
X-1226D01*
X-1420Y-1235D02*
X-1408D01*
X-1414D01*
Y-1270D01*
X-1420D01*
X-1408D01*
X-1391D02*
Y-1235D01*
X-1379Y-1247D01*
X-1368Y-1235D01*
Y-1270D01*
X-1356Y-1235D02*
Y-1264D01*
X-1350Y-1270D01*
X-1338D01*
X-1333Y-1264D01*
Y-1235D01*
X-1321Y-1276D02*
X-1298D01*
X-1263Y-1241D02*
X-1268Y-1235D01*
X-1280D01*
X-1286Y-1241D01*
Y-1247D01*
X-1280Y-1253D01*
X-1268D01*
X-1263Y-1258D01*
Y-1264D01*
X-1268Y-1270D01*
X-1280D01*
X-1286Y-1264D01*
X-1228Y-1241D02*
X-1233Y-1235D01*
X-1245D01*
X-1251Y-1241D01*
Y-1264D01*
X-1245Y-1270D01*
X-1233D01*
X-1228Y-1264D01*
X-1216Y-1235D02*
Y-1270D01*
X-1193D01*
X229Y-105D02*
X241D01*
X235D01*
Y-140D01*
X229D01*
X241D01*
X258D02*
Y-105D01*
X270Y-117D01*
X281Y-105D01*
Y-140D01*
X293Y-105D02*
Y-134D01*
X299Y-140D01*
X311D01*
X316Y-134D01*
Y-105D01*
X328Y-146D02*
X351D01*
X363Y-105D02*
X375D01*
X369D01*
Y-140D01*
X363D01*
X375D01*
X392D02*
Y-105D01*
X416Y-140D01*
Y-105D01*
X427D02*
X451D01*
X439D01*
Y-140D01*
X1130Y1360D02*
X1159D01*
X1165Y1366D01*
Y1377D01*
X1159Y1383D01*
X1130D01*
X1159Y1395D02*
X1165Y1401D01*
Y1412D01*
X1159Y1418D01*
X1136D01*
X1130Y1412D01*
Y1401D01*
X1136Y1395D01*
X1142D01*
X1148Y1401D01*
Y1418D01*
X-2405Y1780D02*
Y1803D01*
Y1792D01*
X-2370D01*
X-2405Y1815D02*
X-2370Y1838D01*
X-2405D02*
X-2370Y1815D01*
X-2364Y1850D02*
Y1873D01*
X-2405Y1885D02*
X-2370D01*
Y1908D01*
X-2165Y1880D02*
Y1903D01*
Y1892D01*
X-2130D01*
X-2165Y1915D02*
X-2130Y1938D01*
X-2165D02*
X-2130Y1915D01*
X-2124Y1950D02*
Y1973D01*
X-2165Y1985D02*
X-2130D01*
X-2147D01*
Y2008D01*
X-2165D01*
X-2130D01*
X3084Y-99D02*
X3078Y-104D01*
Y-116D01*
X3084Y-122D01*
X3090D01*
X3096Y-116D01*
Y-104D01*
X3102Y-99D01*
X3108D01*
X3113Y-104D01*
Y-116D01*
X3108Y-122D01*
X3078Y-87D02*
X3113D01*
X3102Y-75D01*
X3113Y-64D01*
X3078D01*
X3113Y-29D02*
Y-52D01*
X3090Y-29D01*
X3084D01*
X3078Y-34D01*
Y-46D01*
X3084Y-52D01*
X-1740Y1985D02*
Y2020D01*
X-1723D01*
X-1717Y2014D01*
Y2002D01*
X-1723Y1997D01*
X-1740D01*
X-1728D02*
X-1717Y1985D01*
X-1705Y2020D02*
X-1682Y1985D01*
Y2020D02*
X-1705Y1985D01*
X-585Y1295D02*
Y1330D01*
X-568D01*
X-562Y1324D01*
Y1312D01*
X-568Y1307D01*
X-585D01*
X-573D02*
X-562Y1295D01*
X-533D02*
Y1330D01*
X-550Y1312D01*
X-527D01*
X-515Y1330D02*
X-492D01*
Y1324D01*
X-515Y1301D01*
Y1295D01*
X-585Y1395D02*
Y1430D01*
X-568D01*
X-562Y1424D01*
Y1412D01*
X-568Y1407D01*
X-585D01*
X-573D02*
X-562Y1395D01*
X-533D02*
Y1430D01*
X-550Y1412D01*
X-527D01*
X-492Y1430D02*
X-503Y1424D01*
X-515Y1412D01*
Y1401D01*
X-509Y1395D01*
X-498D01*
X-492Y1401D01*
Y1407D01*
X-498Y1412D01*
X-515D01*
X1953Y1163D02*
X1918D01*
Y1180D01*
X1924Y1186D01*
X1936D01*
X1941Y1180D01*
Y1163D01*
Y1175D02*
X1953Y1186D01*
Y1215D02*
X1918D01*
X1936Y1198D01*
Y1221D01*
X1918Y1256D02*
Y1233D01*
X1936D01*
X1930Y1245D01*
Y1250D01*
X1936Y1256D01*
X1947D01*
X1953Y1250D01*
Y1239D01*
X1947Y1233D01*
X2217Y1162D02*
X2182D01*
Y1179D01*
X2188Y1185D01*
X2200D01*
X2205Y1179D01*
Y1162D01*
Y1174D02*
X2217Y1185D01*
Y1214D02*
X2182D01*
X2200Y1197D01*
Y1220D01*
X2217Y1249D02*
X2182D01*
X2200Y1232D01*
Y1255D01*
X2030Y830D02*
Y865D01*
X2047D01*
X2053Y859D01*
Y847D01*
X2047Y842D01*
X2030D01*
X2042D02*
X2053Y830D01*
X2088D02*
X2065D01*
X2088Y853D01*
Y859D01*
X2082Y865D01*
X2071D01*
X2065Y859D01*
X2117Y830D02*
Y865D01*
X2100Y847D01*
X2123D01*
X2030Y700D02*
Y735D01*
X2047D01*
X2053Y729D01*
Y717D01*
X2047Y712D01*
X2030D01*
X2042D02*
X2053Y700D01*
X2088D02*
X2065D01*
X2088Y723D01*
Y729D01*
X2082Y735D01*
X2071D01*
X2065Y729D01*
X2123Y700D02*
X2100D01*
X2123Y723D01*
Y729D01*
X2117Y735D01*
X2106D01*
X2100Y729D01*
X3017Y126D02*
X2982D01*
Y143D01*
X2988Y149D01*
X3000D01*
X3006Y143D01*
Y126D01*
Y137D02*
X3017Y149D01*
Y184D02*
Y161D01*
X2994Y184D01*
X2988D01*
X2982Y178D01*
Y166D01*
X2988Y161D01*
X3017Y196D02*
Y207D01*
Y201D01*
X2982D01*
X2988Y196D01*
X-3188Y475D02*
X-3223D01*
Y492D01*
X-3217Y498D01*
X-3206D01*
X-3200Y492D01*
Y475D01*
Y487D02*
X-3188Y498D01*
Y533D02*
Y510D01*
X-3211Y533D01*
X-3217D01*
X-3223Y527D01*
Y516D01*
X-3217Y510D01*
Y545D02*
X-3223Y551D01*
Y562D01*
X-3217Y568D01*
X-3194D01*
X-3188Y562D01*
Y551D01*
X-3194Y545D01*
X-3217D01*
X-418Y-654D02*
X-394D01*
X-389Y-648D01*
Y-636D01*
X-394Y-631D01*
X-418D01*
X-424Y-636D01*
Y-648D01*
X-412Y-642D02*
X-424Y-654D01*
Y-648D02*
X-418Y-654D01*
X-424Y-683D02*
X-389D01*
X-406Y-665D01*
Y-689D01*
X-601Y-556D02*
X-577D01*
X-572Y-550D01*
Y-538D01*
X-577Y-533D01*
X-601D01*
X-607Y-538D01*
Y-550D01*
X-595Y-544D02*
X-607Y-556D01*
Y-550D02*
X-601Y-556D01*
X-607Y-591D02*
Y-567D01*
X-583Y-591D01*
X-577D01*
X-572Y-585D01*
Y-573D01*
X-577Y-567D01*
X3060Y-460D02*
X3025D01*
Y-443D01*
X3031Y-437D01*
X3043D01*
X3048Y-443D01*
Y-460D01*
X3060Y-402D02*
Y-425D01*
X3037Y-402D01*
X3031D01*
X3025Y-408D01*
Y-419D01*
X3031Y-425D01*
X3025Y-367D02*
Y-390D01*
X3043D01*
X3037Y-378D01*
Y-373D01*
X3043Y-367D01*
X3054D01*
X3060Y-373D01*
Y-384D01*
X3054Y-390D01*
X2724Y1006D02*
X2689D01*
Y1023D01*
X2695Y1029D01*
X2707D01*
X2712Y1023D01*
Y1006D01*
X2724Y1064D02*
Y1041D01*
X2701Y1064D01*
X2695D01*
X2689Y1058D01*
Y1047D01*
X2695Y1041D01*
X2724Y1093D02*
X2689D01*
X2707Y1076D01*
Y1099D01*
X3060Y-740D02*
X3025D01*
Y-723D01*
X3031Y-717D01*
X3043D01*
X3048Y-723D01*
Y-740D01*
X3060Y-682D02*
Y-705D01*
X3037Y-682D01*
X3031D01*
X3025Y-688D01*
Y-699D01*
X3031Y-705D01*
X2970Y1395D02*
Y1430D01*
X2953D01*
X2947Y1424D01*
Y1401D01*
X2953Y1395D01*
X2970D01*
X2912Y1430D02*
X2935D01*
X2912Y1407D01*
Y1401D01*
X2918Y1395D01*
X2929D01*
X2935Y1401D01*
X2830Y1395D02*
Y1430D01*
X2813D01*
X2807Y1424D01*
Y1401D01*
X2813Y1395D01*
X2830D01*
X2795Y1430D02*
X2783D01*
X2789D01*
Y1395D01*
X2795Y1401D01*
X2881Y91D02*
X2875Y85D01*
Y74D01*
X2881Y68D01*
X2904D01*
X2910Y74D01*
Y85D01*
X2904Y91D01*
X2910Y126D02*
Y103D01*
X2887Y126D01*
X2881D01*
X2875Y120D01*
Y109D01*
X2881Y103D01*
Y138D02*
X2875Y144D01*
Y155D01*
X2881Y161D01*
X2904D01*
X2910Y155D01*
Y144D01*
X2904Y138D01*
X2881D01*
X-3322Y449D02*
X-3328Y443D01*
Y432D01*
X-3322Y426D01*
X-3299D01*
X-3293Y432D01*
Y443D01*
X-3299Y449D01*
X-3293Y461D02*
Y473D01*
Y467D01*
X-3328D01*
X-3322Y461D01*
X-3299Y490D02*
X-3293Y496D01*
Y507D01*
X-3299Y513D01*
X-3322D01*
X-3328Y507D01*
Y496D01*
X-3322Y490D01*
X-3316D01*
X-3311Y496D01*
Y513D01*
X2699Y309D02*
X2693Y315D01*
X2682D01*
X2676Y309D01*
Y286D01*
X2682Y280D01*
X2693D01*
X2699Y286D01*
X2711Y280D02*
X2723D01*
X2717D01*
Y315D01*
X2711Y309D01*
X2740D02*
X2746Y315D01*
X2758D01*
X2763Y309D01*
Y303D01*
X2758Y297D01*
X2763Y292D01*
Y286D01*
X2758Y280D01*
X2746D01*
X2740Y286D01*
Y292D01*
X2746Y297D01*
X2740Y303D01*
Y309D01*
X2746Y297D02*
X2758D01*
X-1401Y1072D02*
X-1407Y1066D01*
Y1055D01*
X-1401Y1049D01*
X-1378D01*
X-1372Y1055D01*
Y1066D01*
X-1378Y1072D01*
X-1372Y1084D02*
Y1096D01*
Y1090D01*
X-1407D01*
X-1401Y1084D01*
X-1407Y1113D02*
Y1136D01*
X-1401D01*
X-1378Y1113D01*
X-1372D01*
X-285Y250D02*
X-291Y244D01*
Y233D01*
X-285Y227D01*
X-262D01*
X-256Y233D01*
Y244D01*
X-262Y250D01*
X-256Y262D02*
Y274D01*
Y268D01*
X-291D01*
X-285Y262D01*
X-291Y314D02*
X-285Y303D01*
X-273Y291D01*
X-262D01*
X-256Y297D01*
Y309D01*
X-262Y314D01*
X-268D01*
X-273Y309D01*
Y291D01*
X-207Y237D02*
X-213Y231D01*
Y220D01*
X-207Y214D01*
X-184D01*
X-178Y220D01*
Y231D01*
X-184Y237D01*
X-178Y249D02*
Y261D01*
Y255D01*
X-213D01*
X-207Y249D01*
X-213Y301D02*
Y278D01*
X-195D01*
X-201Y290D01*
Y296D01*
X-195Y301D01*
X-184D01*
X-178Y296D01*
Y284D01*
X-184Y278D01*
X1333Y1755D02*
X1310D01*
Y1737D01*
X1322Y1743D01*
X1327D01*
X1333Y1737D01*
Y1726D01*
X1327Y1720D01*
X1316D01*
X1310Y1726D01*
X1345Y1755D02*
Y1732D01*
X1357Y1720D01*
X1368Y1732D01*
Y1755D01*
X1380Y1714D02*
X1403D01*
X1415Y1755D02*
X1427D01*
X1421D01*
Y1720D01*
X1415D01*
X1427D01*
X1444D02*
Y1755D01*
X1462D01*
X1467Y1749D01*
Y1737D01*
X1462Y1732D01*
X1444D01*
X1456D02*
X1467Y1720D01*
X1808Y1760D02*
X1785D01*
Y1742D01*
X1797Y1748D01*
X1802D01*
X1808Y1742D01*
Y1731D01*
X1802Y1725D01*
X1791D01*
X1785Y1731D01*
X1820Y1760D02*
Y1737D01*
X1832Y1725D01*
X1843Y1737D01*
Y1760D01*
X1855Y1719D02*
X1878D01*
X1890Y1725D02*
X1902D01*
X1896D01*
Y1760D01*
X1890Y1754D01*
X2880Y1721D02*
X2874Y1715D01*
X2863D01*
X2857Y1721D01*
Y1727D01*
X2863Y1733D01*
X2868D01*
X2863D01*
X2857Y1738D01*
Y1744D01*
X2863Y1750D01*
X2874D01*
X2880Y1744D01*
X2845Y1715D02*
Y1738D01*
X2833Y1750D01*
X2822Y1738D01*
Y1715D01*
X2810Y1721D02*
X2804Y1715D01*
X2793D01*
X2787Y1721D01*
Y1727D01*
X2793Y1733D01*
X2798D01*
X2793D01*
X2787Y1738D01*
Y1744D01*
X2793Y1750D01*
X2804D01*
X2810Y1744D01*
X2775Y1756D02*
X2752D01*
X2740Y1715D02*
Y1750D01*
X2723D01*
X2717Y1744D01*
Y1721D01*
X2723Y1715D01*
X2740D01*
X2705D02*
Y1744D01*
X2699Y1750D01*
X2688D01*
X2682Y1744D01*
Y1715D01*
X2647D02*
X2670D01*
Y1750D01*
X2647D01*
X2670Y1733D02*
X2658D01*
X2245Y1749D02*
X2251Y1755D01*
X2262D01*
X2268Y1749D01*
Y1743D01*
X2262Y1737D01*
X2257D01*
X2262D01*
X2268Y1732D01*
Y1726D01*
X2262Y1720D01*
X2251D01*
X2245Y1726D01*
X2280Y1755D02*
Y1732D01*
X2292Y1720D01*
X2303Y1732D01*
Y1755D01*
X2315Y1749D02*
X2321Y1755D01*
X2332D01*
X2338Y1749D01*
Y1743D01*
X2332Y1737D01*
X2327D01*
X2332D01*
X2338Y1732D01*
Y1726D01*
X2332Y1720D01*
X2321D01*
X2315Y1726D01*
X2350Y1714D02*
X2373D01*
X2385Y1720D02*
X2397D01*
X2391D01*
Y1755D01*
X2385Y1749D01*
X1443Y1329D02*
X1437Y1335D01*
X1426D01*
X1420Y1329D01*
Y1306D01*
X1426Y1300D01*
X1437D01*
X1443Y1306D01*
X1478Y1300D02*
X1455D01*
X1478Y1323D01*
Y1329D01*
X1472Y1335D01*
X1461D01*
X1455Y1329D01*
X1513Y1300D02*
X1490D01*
X1513Y1323D01*
Y1329D01*
X1507Y1335D01*
X1496D01*
X1490Y1329D01*
X1025Y2030D02*
Y2065D01*
X1042D01*
X1048Y2059D01*
Y2047D01*
X1042Y2042D01*
X1025D01*
X1060Y2059D02*
X1066Y2065D01*
X1077D01*
X1083Y2059D01*
Y2053D01*
X1077Y2047D01*
X1083Y2042D01*
Y2036D01*
X1077Y2030D01*
X1066D01*
X1060Y2036D01*
Y2042D01*
X1066Y2047D01*
X1060Y2053D01*
Y2059D01*
X1066Y2047D02*
X1077D01*
X-820Y1932D02*
Y1897D01*
X-837D01*
X-843Y1903D01*
Y1915D01*
X-837Y1920D01*
X-820D01*
X-855Y1926D02*
X-861Y1932D01*
X-872D01*
X-878Y1926D01*
Y1903D01*
X-872Y1897D01*
X-861D01*
X-855Y1903D01*
Y1909D01*
X-861Y1915D01*
X-878D01*
X-2775Y230D02*
X-2740D01*
Y213D01*
X-2746Y207D01*
X-2758D01*
X-2763Y213D01*
Y230D01*
X-2775Y195D02*
Y183D01*
Y189D01*
X-2740D01*
X-2746Y195D01*
Y166D02*
X-2740Y160D01*
Y148D01*
X-2746Y143D01*
X-2769D01*
X-2775Y148D01*
Y160D01*
X-2769Y166D01*
X-2746D01*
X-2765Y-175D02*
X-2730D01*
Y-192D01*
X-2736Y-198D01*
X-2748D01*
X-2753Y-192D01*
Y-175D01*
X-2765Y-210D02*
Y-222D01*
Y-216D01*
X-2730D01*
X-2736Y-210D01*
X-2765Y-239D02*
Y-251D01*
Y-245D01*
X-2730D01*
X-2736Y-239D01*
X-520Y-1715D02*
Y-1680D01*
X-503D01*
X-497Y-1686D01*
Y-1698D01*
X-503Y-1703D01*
X-520D01*
X-485Y-1715D02*
X-473D01*
X-479D01*
Y-1680D01*
X-485Y-1686D01*
X-433Y-1715D02*
X-456D01*
X-433Y-1692D01*
Y-1686D01*
X-438Y-1680D01*
X-450D01*
X-456Y-1686D01*
X230Y-1700D02*
Y-1665D01*
X247D01*
X253Y-1671D01*
Y-1683D01*
X247Y-1688D01*
X230D01*
X265Y-1700D02*
X277D01*
X271D01*
Y-1665D01*
X265Y-1671D01*
X294D02*
X300Y-1665D01*
X312D01*
X317Y-1671D01*
Y-1677D01*
X312Y-1683D01*
X306D01*
X312D01*
X317Y-1688D01*
Y-1694D01*
X312Y-1700D01*
X300D01*
X294Y-1694D01*
X3100Y-620D02*
X3065D01*
Y-603D01*
X3071Y-597D01*
X3083D01*
X3088Y-603D01*
Y-620D01*
X3100Y-585D02*
Y-573D01*
Y-579D01*
X3065D01*
X3071Y-585D01*
X3100Y-538D02*
X3065D01*
X3083Y-556D01*
Y-533D01*
X3120Y240D02*
X3085D01*
Y257D01*
X3091Y263D01*
X3103D01*
X3108Y257D01*
Y240D01*
X3120Y275D02*
Y287D01*
Y281D01*
X3085D01*
X3091Y275D01*
X3085Y327D02*
Y304D01*
X3103D01*
X3097Y316D01*
Y322D01*
X3103Y327D01*
X3114D01*
X3120Y322D01*
Y310D01*
X3114Y304D01*
X-1820Y-1715D02*
Y-1680D01*
X-1803D01*
X-1797Y-1686D01*
Y-1698D01*
X-1803Y-1703D01*
X-1820D01*
X-1785Y-1715D02*
X-1773D01*
X-1779D01*
Y-1680D01*
X-1785Y-1686D01*
X-1733Y-1680D02*
X-1744Y-1686D01*
X-1756Y-1698D01*
Y-1709D01*
X-1750Y-1715D01*
X-1738D01*
X-1733Y-1709D01*
Y-1703D01*
X-1738Y-1698D01*
X-1756D01*
X-1170Y-1712D02*
Y-1677D01*
X-1153D01*
X-1147Y-1683D01*
Y-1695D01*
X-1153Y-1700D01*
X-1170D01*
X-1135Y-1712D02*
X-1123D01*
X-1129D01*
Y-1677D01*
X-1135Y-1683D01*
X-1106Y-1677D02*
X-1083D01*
Y-1683D01*
X-1106Y-1706D01*
Y-1712D01*
X-2120Y-1439D02*
Y-1416D01*
X-2126Y-1410D01*
X-2138D01*
X-2144Y-1416D01*
Y-1439D01*
X-2138Y-1445D01*
X-2126D01*
X-2132Y-1433D02*
X-2120Y-1445D01*
X-2126D02*
X-2120Y-1439D01*
X-2109Y-1445D02*
X-2097D01*
X-2103D01*
Y-1410D01*
X-2109Y-1416D01*
X-1947Y-1434D02*
Y-1411D01*
X-1953Y-1405D01*
X-1964D01*
X-1970Y-1411D01*
Y-1434D01*
X-1964Y-1440D01*
X-1953D01*
X-1958Y-1428D02*
X-1947Y-1440D01*
X-1953D02*
X-1947Y-1434D01*
X-1935Y-1411D02*
X-1929Y-1405D01*
X-1918D01*
X-1912Y-1411D01*
Y-1417D01*
X-1918Y-1423D01*
X-1923D01*
X-1918D01*
X-1912Y-1428D01*
Y-1434D01*
X-1918Y-1440D01*
X-1929D01*
X-1935Y-1434D01*
X-1551Y-328D02*
X-1522D01*
X-1516Y-322D01*
Y-311D01*
X-1522Y-305D01*
X-1551D01*
X-1545Y-293D02*
X-1551Y-287D01*
Y-276D01*
X-1545Y-270D01*
X-1539D01*
X-1533Y-276D01*
X-1528Y-270D01*
X-1522D01*
X-1516Y-276D01*
Y-287D01*
X-1522Y-293D01*
X-1528D01*
X-1533Y-287D01*
X-1539Y-293D01*
X-1545D01*
X-1533Y-287D02*
Y-276D01*
X-1510Y-258D02*
Y-235D01*
X-1516Y-223D02*
Y-211D01*
Y-217D01*
X-1551D01*
X-1545Y-223D01*
X-2435Y-318D02*
X-2406D01*
X-2400Y-312D01*
Y-300D01*
X-2406Y-294D01*
X-2435D01*
X-2429Y-283D02*
X-2435Y-277D01*
Y-265D01*
X-2429Y-259D01*
X-2423D01*
X-2417Y-265D01*
X-2411Y-259D01*
X-2406D01*
X-2400Y-265D01*
Y-277D01*
X-2406Y-283D01*
X-2411D01*
X-2417Y-277D01*
X-2423Y-283D01*
X-2429D01*
X-2417Y-277D02*
Y-265D01*
X-2394Y-248D02*
Y-225D01*
X-2400Y-190D02*
Y-213D01*
X-2423Y-190D01*
X-2429D01*
X-2435Y-195D01*
Y-207D01*
X-2429Y-213D01*
X-3288Y1149D02*
X-3253D01*
Y1166D01*
X-3259Y1172D01*
X-3265D01*
X-3270Y1166D01*
Y1149D01*
Y1166D01*
X-3276Y1172D01*
X-3282D01*
X-3288Y1166D01*
Y1149D01*
Y1184D02*
Y1207D01*
X-3282D01*
X-3259Y1184D01*
X-3253D01*
Y1207D01*
Y1219D02*
Y1231D01*
Y1225D01*
X-3288D01*
X-3282Y1219D01*
X-2932Y1820D02*
X-2955D01*
X-2961Y1814D01*
Y1803D01*
X-2955Y1797D01*
X-2932D01*
X-2926Y1803D01*
Y1814D01*
X-2938Y1809D02*
X-2926Y1820D01*
Y1814D02*
X-2932Y1820D01*
X-2961Y1832D02*
Y1855D01*
X-2955D01*
X-2932Y1832D01*
X-2926D01*
X-2762Y1866D02*
X-2797D01*
Y1883D01*
X-2791Y1889D01*
X-2779D01*
X-2774Y1883D01*
Y1866D01*
Y1878D02*
X-2762Y1889D01*
X-2797Y1924D02*
Y1901D01*
X-2779D01*
X-2785Y1913D01*
Y1918D01*
X-2779Y1924D01*
X-2768D01*
X-2762Y1918D01*
Y1907D01*
X-2768Y1901D01*
X-2762Y1959D02*
Y1936D01*
X-2785Y1959D01*
X-2791D01*
X-2797Y1953D01*
Y1942D01*
X-2791Y1936D01*
X-1437Y430D02*
X-1431Y425D01*
X-1419D01*
X-1413Y430D01*
Y454D01*
X-1419Y460D01*
X-1431D01*
X-1437Y454D01*
X-1472Y460D02*
X-1448D01*
X-1472Y436D01*
Y430D01*
X-1466Y425D01*
X-1454D01*
X-1448Y430D01*
X-1483Y460D02*
X-1495D01*
X-1489D01*
Y425D01*
X-1483Y430D01*
X1905Y-61D02*
Y-96D01*
X1922D01*
X1928Y-90D01*
Y-67D01*
X1922Y-61D01*
X1905D01*
X1940Y-96D02*
X1952D01*
X1946D01*
Y-73D01*
X1940D01*
X1981Y-108D02*
X1987D01*
X1992Y-102D01*
Y-73D01*
X1975D01*
X1969Y-79D01*
Y-90D01*
X1975Y-96D01*
X1992D01*
X2039Y-79D02*
X2062D01*
X2132Y-67D02*
X2127Y-61D01*
X2115D01*
X2109Y-67D01*
Y-90D01*
X2115Y-96D01*
X2127D01*
X2132Y-90D01*
X2150Y-73D02*
X2162D01*
X2167Y-79D01*
Y-96D01*
X2150D01*
X2144Y-90D01*
X2150Y-84D01*
X2167D01*
X2179Y-108D02*
Y-73D01*
X2197D01*
X2202Y-79D01*
Y-90D01*
X2197Y-96D01*
X2179D01*
X-1557Y1930D02*
X-1580D01*
Y1912D01*
X-1568D01*
X-1580D01*
Y1895D01*
X-1545Y1930D02*
X-1522D01*
X-1533D01*
Y1895D01*
X-1510Y1930D02*
Y1895D01*
X-1493D01*
X-1487Y1901D01*
Y1924D01*
X-1493Y1930D01*
X-1510D01*
X-1475D02*
X-1463D01*
X-1469D01*
Y1895D01*
X-1475D01*
X-1463D01*
X-1557Y1749D02*
X-1563Y1755D01*
X-1574D01*
X-1580Y1749D01*
Y1726D01*
X-1574Y1720D01*
X-1563D01*
X-1557Y1726D01*
Y1737D01*
X-1568D01*
X-1545Y1720D02*
Y1755D01*
X-1522Y1720D01*
Y1755D01*
X-1510D02*
Y1720D01*
X-1493D01*
X-1487Y1726D01*
Y1749D01*
X-1493Y1755D01*
X-1510D01*
X-1810Y1720D02*
Y1755D01*
X-1793D01*
X-1787Y1749D01*
Y1737D01*
X-1793Y1732D01*
X-1810D01*
X-1798D02*
X-1787Y1720D01*
X-1775Y1755D02*
X-1752Y1720D01*
Y1755D02*
X-1775Y1720D01*
X-2061Y1760D02*
Y1725D01*
X-2044D01*
X-2038Y1731D01*
Y1754D01*
X-2044Y1760D01*
X-2061D01*
X-2026D02*
X-2003D01*
X-2014D01*
Y1725D01*
X-1991D02*
Y1760D01*
X-1974D01*
X-1968Y1754D01*
Y1742D01*
X-1974Y1737D01*
X-1991D01*
X-1979D02*
X-1968Y1725D01*
X-1925Y1758D02*
X-1902D01*
X-1913D01*
Y1723D01*
X-1890Y1758D02*
X-1867Y1723D01*
Y1758D02*
X-1890Y1723D01*
X-1325Y1042D02*
Y1013D01*
X-1319Y1007D01*
X-1308D01*
X-1302Y1013D01*
Y1042D01*
X-1290Y1007D02*
Y1030D01*
X-1278Y1042D01*
X-1267Y1030D01*
Y1007D01*
Y1025D01*
X-1290D01*
X-1255Y1007D02*
Y1042D01*
X-1238D01*
X-1232Y1036D01*
Y1025D01*
X-1238Y1019D01*
X-1255D01*
X-1243D02*
X-1232Y1007D01*
X-1220Y1042D02*
X-1197D01*
X-1208D01*
Y1007D01*
X-1185Y1025D02*
X-1162D01*
X-1150Y1030D02*
X-1127Y1007D01*
X-1138Y1019D01*
X-1127Y1030D01*
X-1150Y1007D01*
X-1115Y1042D02*
Y1007D01*
X-1098D01*
X-1092Y1013D01*
Y1019D01*
X-1098Y1025D01*
X-1115D01*
X-1098D01*
X-1092Y1030D01*
Y1036D01*
X-1098Y1042D01*
X-1115D01*
X-1063Y1007D02*
X-1074D01*
X-1080Y1013D01*
Y1025D01*
X-1074Y1030D01*
X-1063D01*
X-1057Y1025D01*
Y1019D01*
X-1080D01*
X-1028Y1007D02*
X-1039D01*
X-1045Y1013D01*
Y1025D01*
X-1039Y1030D01*
X-1028D01*
X-1022Y1025D01*
Y1019D01*
X-1045D01*
X-1065Y1470D02*
X-1088D01*
X-1100Y1458D01*
X-1088Y1447D01*
X-1065D01*
X-1077Y1412D02*
Y1429D01*
X-1083Y1435D01*
X-1094D01*
X-1100Y1429D01*
Y1412D01*
X-1077Y1377D02*
Y1394D01*
X-1083Y1400D01*
X-1094D01*
X-1100Y1394D01*
Y1377D01*
X-1071Y1327D02*
X-1065Y1333D01*
Y1344D01*
X-1071Y1350D01*
X-1094D01*
X-1100Y1344D01*
Y1333D01*
X-1094Y1327D01*
X-1083D01*
Y1338D01*
X-1100Y1315D02*
X-1065D01*
X-1100Y1292D01*
X-1065D01*
Y1280D02*
X-1100D01*
Y1263D01*
X-1094Y1257D01*
X-1071D01*
X-1065Y1263D01*
Y1280D01*
X-1100Y1145D02*
X-1065D01*
Y1128D01*
X-1071Y1122D01*
X-1083D01*
X-1088Y1128D01*
Y1145D01*
Y1133D02*
X-1100Y1122D01*
X-1065Y1110D02*
X-1100Y1087D01*
X-1065D02*
X-1100Y1110D01*
X-1065Y1235D02*
Y1212D01*
Y1223D01*
X-1100D01*
X-1065Y1200D02*
X-1100Y1177D01*
X-1065D02*
X-1100Y1200D01*
X-720Y70D02*
Y58D01*
Y64D01*
X-685D01*
X-691Y70D01*
Y-99D02*
X-685Y-105D01*
Y-117D01*
X-691Y-122D01*
X-714D01*
X-720Y-117D01*
Y-105D01*
X-714Y-99D01*
X-691D01*
X-2572Y1222D02*
X-2578Y1228D01*
X-2589D01*
X-2595Y1222D01*
Y1199D01*
X-2589Y1193D01*
X-2578D01*
X-2572Y1199D01*
Y1210D01*
X-2583D01*
X-2560Y1193D02*
Y1228D01*
X-2537Y1193D01*
Y1228D01*
X-2525D02*
Y1193D01*
X-2508D01*
X-2502Y1199D01*
Y1222D01*
X-2508Y1228D01*
X-2525D01*
X-2470D02*
Y1205D01*
X-2458Y1193D01*
X-2447Y1205D01*
Y1228D01*
X-2412Y1216D02*
X-2429D01*
X-2435Y1210D01*
Y1199D01*
X-2429Y1193D01*
X-2412D01*
X-2377Y1216D02*
X-2394D01*
X-2400Y1210D01*
Y1199D01*
X-2394Y1193D01*
X-2377D01*
X-1040Y1892D02*
Y1921D01*
X-1046Y1927D01*
X-1057D01*
X-1063Y1921D01*
Y1892D01*
X-1098Y1898D02*
X-1092Y1892D01*
X-1081D01*
X-1075Y1898D01*
Y1903D01*
X-1081Y1909D01*
X-1092D01*
X-1098Y1915D01*
Y1921D01*
X-1092Y1927D01*
X-1081D01*
X-1075Y1921D01*
X-810Y2163D02*
Y2186D01*
X-822Y2198D01*
X-833Y2186D01*
Y2163D01*
X-845Y2198D02*
X-857D01*
X-851D01*
Y2175D01*
X-845D01*
X-874Y2198D02*
Y2175D01*
X-892D01*
X-897Y2181D01*
Y2198D01*
X-967Y2169D02*
X-962Y2163D01*
X-950D01*
X-944Y2169D01*
Y2192D01*
X-950Y2198D01*
X-962D01*
X-967Y2192D01*
Y2181D01*
X-956D01*
X-979Y2198D02*
Y2163D01*
X-1002Y2198D01*
Y2163D01*
X-1014D02*
Y2198D01*
X-1032D01*
X-1037Y2192D01*
Y2169D01*
X-1032Y2163D01*
X-1014D01*
X-1107Y2169D02*
X-1102Y2163D01*
X-1090D01*
X-1084Y2169D01*
Y2175D01*
X-1090Y2181D01*
X-1102D01*
X-1107Y2186D01*
Y2192D01*
X-1102Y2198D01*
X-1090D01*
X-1084Y2192D01*
X-1142Y2163D02*
X-1131Y2169D01*
X-1119Y2181D01*
Y2192D01*
X-1125Y2198D01*
X-1137D01*
X-1142Y2192D01*
Y2186D01*
X-1137Y2181D01*
X-1119D01*
X-1189Y2163D02*
X-1212D01*
X-1201D01*
Y2198D01*
X220Y-1930D02*
Y-1953D01*
X232Y-1965D01*
X243Y-1953D01*
Y-1930D01*
X255Y-1965D02*
X267D01*
X261D01*
Y-1942D01*
X255D01*
X284Y-1965D02*
Y-1942D01*
X302D01*
X307Y-1948D01*
Y-1965D01*
X377Y-1936D02*
X372Y-1930D01*
X360D01*
X354Y-1936D01*
Y-1959D01*
X360Y-1965D01*
X372D01*
X377Y-1959D01*
Y-1948D01*
X366D01*
X389Y-1965D02*
Y-1930D01*
X412Y-1965D01*
Y-1930D01*
X424D02*
Y-1965D01*
X442D01*
X447Y-1959D01*
Y-1936D01*
X442Y-1930D01*
X424D01*
X517Y-1936D02*
X512Y-1930D01*
X500D01*
X494Y-1936D01*
Y-1942D01*
X500Y-1948D01*
X512D01*
X517Y-1953D01*
Y-1959D01*
X512Y-1965D01*
X500D01*
X494Y-1959D01*
X529Y-1936D02*
X535Y-1930D01*
X547D01*
X552Y-1936D01*
Y-1942D01*
X547Y-1948D01*
X552Y-1953D01*
Y-1959D01*
X547Y-1965D01*
X535D01*
X529Y-1959D01*
Y-1953D01*
X535Y-1948D01*
X529Y-1942D01*
Y-1936D01*
X535Y-1948D02*
X547D01*
X599Y-1930D02*
X622D01*
X611D01*
Y-1965D01*
X420Y-1671D02*
Y-1700D01*
X426Y-1706D01*
X437D01*
X443Y-1700D01*
Y-1671D01*
X478Y-1677D02*
X472Y-1671D01*
X461D01*
X455Y-1677D01*
Y-1683D01*
X461Y-1689D01*
X472D01*
X478Y-1694D01*
Y-1700D01*
X472Y-1706D01*
X461D01*
X455Y-1700D01*
X-2990Y-310D02*
Y-333D01*
Y-322D01*
X-3025D01*
X-3001Y-233D02*
X-2995Y-227D01*
Y-216D01*
X-3001Y-210D01*
X-3007D01*
X-3013Y-216D01*
Y-227D01*
X-3018Y-233D01*
X-3024D01*
X-3030Y-227D01*
Y-216D01*
X-3024Y-210D01*
X-2995Y-245D02*
Y-268D01*
X-3001D01*
X-3024Y-245D01*
X-3030D01*
X-3001Y-113D02*
X-2995Y-107D01*
Y-96D01*
X-3001Y-90D01*
X-3024D01*
X-3030Y-96D01*
Y-107D01*
X-3024Y-113D01*
X-3013D01*
Y-102D01*
X-3030Y-125D02*
X-2995D01*
X-3030Y-148D01*
X-2995D01*
Y-160D02*
X-3030D01*
Y-177D01*
X-3024Y-183D01*
X-3001D01*
X-2995Y-177D01*
Y-160D01*
Y20D02*
X-3018D01*
X-3030Y8D01*
X-3018Y-3D01*
X-2995D01*
X-3030Y-15D02*
Y-27D01*
Y-21D01*
X-3007D01*
Y-15D01*
X-3030Y-44D02*
X-3007D01*
Y-62D01*
X-3013Y-67D01*
X-3030D01*
X-2735Y-40D02*
X-2764D01*
X-2770Y-46D01*
Y-57D01*
X-2764Y-63D01*
X-2735D01*
X-2741Y-98D02*
X-2735Y-92D01*
Y-81D01*
X-2741Y-75D01*
X-2747D01*
X-2753Y-81D01*
Y-92D01*
X-2758Y-98D01*
X-2764D01*
X-2770Y-92D01*
Y-81D01*
X-2764Y-75D01*
X-2993Y102D02*
X-2987Y108D01*
Y119D01*
X-2993Y125D01*
X-2999D01*
X-3005Y119D01*
Y108D01*
X-3010Y102D01*
X-3016D01*
X-3022Y108D01*
Y119D01*
X-3016Y125D01*
X-3022Y67D02*
Y90D01*
X-2999Y67D01*
X-2993D01*
X-2987Y73D01*
Y84D01*
X-2993Y90D01*
X-2991Y222D02*
X-2985Y228D01*
Y239D01*
X-2991Y245D01*
X-3014D01*
X-3020Y239D01*
Y228D01*
X-3014Y222D01*
X-3003D01*
Y233D01*
X-3020Y210D02*
X-2985D01*
X-3020Y187D01*
X-2985D01*
Y175D02*
X-3020D01*
Y158D01*
X-3014Y152D01*
X-2991D01*
X-2985Y158D01*
Y175D01*
X-2987Y360D02*
X-3010D01*
X-3022Y348D01*
X-3010Y337D01*
X-2987D01*
X-3022Y325D02*
Y313D01*
Y319D01*
X-2999D01*
Y325D01*
X-3022Y296D02*
X-2999D01*
Y278D01*
X-3005Y273D01*
X-3022D01*
X-2735Y345D02*
Y333D01*
Y339D01*
X-2770D01*
Y345D01*
Y333D01*
Y316D02*
X-2735D01*
Y298D01*
X-2741Y293D01*
X-2753D01*
X-2758Y298D01*
Y316D01*
Y304D02*
X-2770Y293D01*
X1030Y2135D02*
X1042D01*
X1036D01*
Y2100D01*
X1030D01*
X1042D01*
X1059D02*
Y2135D01*
X1077D01*
X1082Y2129D01*
Y2117D01*
X1077Y2112D01*
X1059D01*
X1071D02*
X1082Y2100D01*
X920Y2185D02*
Y2162D01*
X932Y2150D01*
X943Y2162D01*
Y2185D01*
X955Y2150D02*
X967D01*
X961D01*
Y2173D01*
X955D01*
X984Y2150D02*
Y2173D01*
X1002D01*
X1007Y2167D01*
Y2150D01*
X813Y2179D02*
X807Y2185D01*
X796D01*
X790Y2179D01*
Y2156D01*
X796Y2150D01*
X807D01*
X813Y2156D01*
Y2167D01*
X802D01*
X825Y2150D02*
Y2185D01*
X848Y2150D01*
Y2185D01*
X860D02*
Y2150D01*
X877D01*
X883Y2156D01*
Y2179D01*
X877Y2185D01*
X860D01*
X713Y2179D02*
X707Y2185D01*
X696D01*
X690Y2179D01*
Y2173D01*
X696Y2167D01*
X707D01*
X713Y2162D01*
Y2156D01*
X707Y2150D01*
X696D01*
X690Y2156D01*
X725Y2150D02*
X737D01*
X731D01*
Y2185D01*
X725Y2179D01*
X3080Y645D02*
X3109D01*
X3115Y651D01*
Y662D01*
X3109Y668D01*
X3080D01*
X3086Y703D02*
X3080Y697D01*
Y686D01*
X3086Y680D01*
X3092D01*
X3098Y686D01*
Y697D01*
X3103Y703D01*
X3109D01*
X3115Y697D01*
Y686D01*
X3109Y680D01*
X3060Y-311D02*
Y-299D01*
Y-305D01*
X3095D01*
Y-311D01*
Y-299D01*
Y-282D02*
X3060D01*
Y-264D01*
X3066Y-258D01*
X3078D01*
X3083Y-264D01*
Y-282D01*
Y-270D02*
X3095Y-258D01*
X2915Y-1450D02*
Y-1485D01*
X2898D01*
X2892Y-1479D01*
Y-1467D01*
X2898Y-1462D01*
X2915D01*
X2863Y-1485D02*
X2874D01*
X2880Y-1479D01*
Y-1456D01*
X2874Y-1450D01*
X2863D01*
X2857Y-1456D01*
Y-1479D01*
X2863Y-1485D01*
X2845D02*
X2822D01*
X2833D01*
Y-1450D01*
X-330Y-1675D02*
X-318D01*
X-324D01*
Y-1710D01*
X-330D01*
X-318D01*
X-301D02*
Y-1675D01*
X-283D01*
X-278Y-1681D01*
Y-1693D01*
X-283Y-1698D01*
X-301D01*
X-289D02*
X-278Y-1710D01*
X-1710Y-1685D02*
X-1698D01*
X-1704D01*
Y-1720D01*
X-1710D01*
X-1698D01*
X-1681D02*
Y-1685D01*
X-1663D01*
X-1658Y-1691D01*
Y-1703D01*
X-1663Y-1708D01*
X-1681D01*
X-1669D02*
X-1658Y-1720D01*
X1643Y-1970D02*
X1637Y-1964D01*
X1626D01*
X1620Y-1970D01*
Y-1976D01*
X1626Y-1982D01*
X1637D01*
X1643Y-1987D01*
Y-1993D01*
X1637Y-1999D01*
X1626D01*
X1620Y-1993D01*
X1655Y-1964D02*
X1678D01*
X1667D01*
Y-1999D01*
X1690D02*
Y-1976D01*
X1702Y-1964D01*
X1713Y-1976D01*
Y-1999D01*
Y-1982D01*
X1690D01*
X1725Y-1964D02*
X1748D01*
X1737D01*
Y-1999D01*
X1760Y-1964D02*
Y-1993D01*
X1766Y-1999D01*
X1777D01*
X1783Y-1993D01*
Y-1964D01*
X1818Y-1970D02*
X1812Y-1964D01*
X1801D01*
X1795Y-1970D01*
Y-1976D01*
X1801Y-1982D01*
X1812D01*
X1818Y-1987D01*
Y-1993D01*
X1812Y-1999D01*
X1801D01*
X1795Y-1993D01*
X1360Y-1999D02*
Y-1964D01*
X1377D01*
X1383Y-1970D01*
Y-1982D01*
X1377Y-1987D01*
X1360D01*
X1395Y-1999D02*
Y-1976D01*
X1407Y-1964D01*
X1418Y-1976D01*
Y-1999D01*
Y-1982D01*
X1395D01*
X1430Y-1964D02*
Y-1993D01*
X1436Y-1999D01*
X1447D01*
X1453Y-1993D01*
Y-1964D01*
X1488Y-1970D02*
X1482Y-1964D01*
X1471D01*
X1465Y-1970D01*
Y-1976D01*
X1471Y-1982D01*
X1482D01*
X1488Y-1987D01*
Y-1993D01*
X1482Y-1999D01*
X1471D01*
X1465Y-1993D01*
X1523Y-1964D02*
X1500D01*
Y-1999D01*
X1523D01*
X1500Y-1982D02*
X1512D01*
X1143Y-1969D02*
X1137Y-1963D01*
X1126D01*
X1120Y-1969D01*
Y-1992D01*
X1126Y-1998D01*
X1137D01*
X1143Y-1992D01*
X1172Y-1963D02*
X1161D01*
X1155Y-1969D01*
Y-1992D01*
X1161Y-1998D01*
X1172D01*
X1178Y-1992D01*
Y-1969D01*
X1172Y-1963D01*
X1190Y-1998D02*
Y-1963D01*
X1207D01*
X1213Y-1969D01*
Y-1981D01*
X1207Y-1986D01*
X1190D01*
X1202D02*
X1213Y-1998D01*
X1248Y-1963D02*
X1225D01*
Y-1998D01*
X1248D01*
X1225Y-1981D02*
X1237D01*
X1283Y-1998D02*
X1260D01*
X1283Y-1975D01*
Y-1969D01*
X1277Y-1963D01*
X1266D01*
X1260Y-1969D01*
X2700Y-720D02*
X2665D01*
Y-703D01*
X2671Y-697D01*
X2683D01*
X2688Y-703D01*
Y-720D01*
X2700Y-685D02*
X2677D01*
X2665Y-673D01*
X2677Y-662D01*
X2700D01*
X2683D01*
Y-685D01*
X2665Y-650D02*
X2694D01*
X2700Y-644D01*
Y-633D01*
X2694Y-627D01*
X2665D01*
X2671Y-592D02*
X2665Y-598D01*
Y-609D01*
X2671Y-615D01*
X2677D01*
X2683Y-609D01*
Y-598D01*
X2688Y-592D01*
X2694D01*
X2700Y-598D01*
Y-609D01*
X2694Y-615D01*
X2665Y-557D02*
Y-580D01*
X2700D01*
Y-557D01*
X2683Y-580D02*
Y-568D01*
X2665Y-510D02*
Y-487D01*
Y-498D01*
X2700D01*
X2665Y-475D02*
X2671D01*
X2683Y-463D01*
X2671Y-452D01*
X2665D01*
X2683Y-463D02*
X2700D01*
Y-440D02*
X2665D01*
Y-423D01*
X2671Y-417D01*
X2683D01*
X2688Y-423D01*
Y-440D01*
X2665Y-382D02*
Y-405D01*
X2700D01*
Y-382D01*
X2683Y-405D02*
Y-393D01*
X2731Y-937D02*
X2725Y-943D01*
Y-954D01*
X2731Y-960D01*
X2737D01*
X2743Y-954D01*
Y-943D01*
X2748Y-937D01*
X2754D01*
X2760Y-943D01*
Y-954D01*
X2754Y-960D01*
X2725Y-925D02*
Y-902D01*
Y-913D01*
X2760D01*
Y-890D02*
X2737D01*
X2725Y-878D01*
X2737Y-867D01*
X2760D01*
X2743D01*
Y-890D01*
X2725Y-855D02*
Y-832D01*
Y-843D01*
X2760D01*
X2725Y-820D02*
X2754D01*
X2760Y-814D01*
Y-803D01*
X2754Y-797D01*
X2725D01*
X2731Y-762D02*
X2725Y-768D01*
Y-779D01*
X2731Y-785D01*
X2737D01*
X2743Y-779D01*
Y-768D01*
X2748Y-762D01*
X2754D01*
X2760Y-768D01*
Y-779D01*
X2754Y-785D01*
X2725Y-700D02*
X2760D01*
Y-683D01*
X2754Y-677D01*
X2731D01*
X2725Y-683D01*
Y-700D01*
X2760Y-665D02*
Y-653D01*
Y-659D01*
X2737D01*
Y-665D01*
X2772Y-624D02*
Y-618D01*
X2766Y-613D01*
X2737D01*
Y-630D01*
X2743Y-636D01*
X2754D01*
X2760Y-630D01*
Y-613D01*
Y-601D02*
X2754D01*
Y-595D01*
X2760D01*
Y-601D01*
X2731Y-477D02*
X2725Y-483D01*
Y-494D01*
X2731Y-500D01*
X2754D01*
X2760Y-494D01*
Y-483D01*
X2754Y-477D01*
X2737Y-459D02*
Y-448D01*
X2743Y-442D01*
X2760D01*
Y-459D01*
X2754Y-465D01*
X2748Y-459D01*
Y-442D01*
X2772Y-430D02*
X2737D01*
Y-413D01*
X2743Y-407D01*
X2754D01*
X2760Y-413D01*
Y-430D01*
Y-395D02*
X2754D01*
Y-389D01*
X2760D01*
Y-395D01*
X3323Y-337D02*
X3317Y-343D01*
Y-354D01*
X3323Y-360D01*
X3329D01*
X3335Y-354D01*
Y-343D01*
X3340Y-337D01*
X3346D01*
X3352Y-343D01*
Y-354D01*
X3346Y-360D01*
X3352Y-308D02*
X3317D01*
X3335Y-325D01*
Y-302D01*
X3323Y-477D02*
X3317Y-483D01*
Y-494D01*
X3323Y-500D01*
X3346D01*
X3352Y-494D01*
Y-483D01*
X3346Y-477D01*
X3335D01*
Y-488D01*
X3352Y-465D02*
X3317D01*
X3352Y-442D01*
X3317D01*
Y-430D02*
X3352D01*
Y-413D01*
X3346Y-407D01*
X3323D01*
X3317Y-413D01*
Y-430D01*
Y-630D02*
X3340D01*
X3352Y-618D01*
X3340Y-607D01*
X3317D01*
X3352Y-595D02*
Y-583D01*
Y-589D01*
X3329D01*
Y-595D01*
X3352Y-566D02*
X3329D01*
Y-548D01*
X3335Y-543D01*
X3352D01*
X3339Y383D02*
X3333Y377D01*
Y366D01*
X3339Y360D01*
X3362D01*
X3368Y366D01*
Y377D01*
X3362Y383D01*
X3351D01*
Y372D01*
X3368Y395D02*
X3333D01*
X3368Y418D01*
X3333D01*
Y430D02*
X3368D01*
Y447D01*
X3362Y453D01*
X3339D01*
X3333Y447D01*
Y430D01*
Y610D02*
Y633D01*
Y622D01*
X3368D01*
X3339Y523D02*
X3333Y517D01*
Y506D01*
X3339Y500D01*
X3345D01*
X3351Y506D01*
Y517D01*
X3356Y523D01*
X3362D01*
X3368Y517D01*
Y506D01*
X3362Y500D01*
Y535D02*
X3368Y541D01*
Y552D01*
X3362Y558D01*
X3339D01*
X3333Y552D01*
Y541D01*
X3339Y535D01*
X3345D01*
X3351Y541D01*
Y558D01*
X3333Y240D02*
X3356D01*
X3368Y252D01*
X3356Y263D01*
X3333D01*
X3368Y275D02*
Y287D01*
Y281D01*
X3345D01*
Y275D01*
X3368Y304D02*
X3345D01*
Y322D01*
X3351Y327D01*
X3368D01*
X-2160Y-1961D02*
X-2154Y-1955D01*
X-2143D01*
X-2137Y-1961D01*
Y-1967D01*
X-2143Y-1973D01*
X-2148D01*
X-2143D01*
X-2137Y-1978D01*
Y-1984D01*
X-2143Y-1990D01*
X-2154D01*
X-2160Y-1984D01*
X-2125Y-1955D02*
Y-1978D01*
X-2113Y-1990D01*
X-2102Y-1978D01*
Y-1955D01*
X-2090Y-1961D02*
X-2084Y-1955D01*
X-2073D01*
X-2067Y-1961D01*
Y-1967D01*
X-2073Y-1973D01*
X-2078D01*
X-2073D01*
X-2067Y-1978D01*
Y-1984D01*
X-2073Y-1990D01*
X-2084D01*
X-2090Y-1984D01*
X-2020Y-1955D02*
X-2008D01*
X-2014D01*
Y-1990D01*
X-2020D01*
X-2008D01*
X-1991D02*
Y-1955D01*
X-1973D01*
X-1968Y-1961D01*
Y-1973D01*
X-1973Y-1978D01*
X-1991D01*
X-1979D02*
X-1968Y-1990D01*
X-1898Y-1955D02*
X-1921D01*
Y-1973D01*
X-1909Y-1967D01*
X-1903D01*
X-1898Y-1973D01*
Y-1984D01*
X-1903Y-1990D01*
X-1915D01*
X-1921Y-1984D01*
X-1886Y-1955D02*
Y-1978D01*
X-1874Y-1990D01*
X-1863Y-1978D01*
Y-1955D01*
X-2155Y-1661D02*
X-2149Y-1655D01*
X-2138D01*
X-2132Y-1661D01*
Y-1667D01*
X-2138Y-1673D01*
X-2143D01*
X-2138D01*
X-2132Y-1678D01*
Y-1684D01*
X-2138Y-1690D01*
X-2149D01*
X-2155Y-1684D01*
X-2120Y-1655D02*
Y-1678D01*
X-2108Y-1690D01*
X-2097Y-1678D01*
Y-1655D01*
X-2085Y-1661D02*
X-2079Y-1655D01*
X-2068D01*
X-2062Y-1661D01*
Y-1667D01*
X-2068Y-1673D01*
X-2073D01*
X-2068D01*
X-2062Y-1678D01*
Y-1684D01*
X-2068Y-1690D01*
X-2079D01*
X-2085Y-1684D01*
X-2015Y-1655D02*
Y-1684D01*
X-2009Y-1690D01*
X-1998D01*
X-1992Y-1684D01*
Y-1655D01*
X-1957Y-1661D02*
X-1963Y-1655D01*
X-1974D01*
X-1980Y-1661D01*
Y-1667D01*
X-1974Y-1673D01*
X-1963D01*
X-1957Y-1678D01*
Y-1684D01*
X-1963Y-1690D01*
X-1974D01*
X-1980Y-1684D01*
X-1887Y-1655D02*
X-1910D01*
Y-1673D01*
X-1898Y-1667D01*
X-1893D01*
X-1887Y-1673D01*
Y-1684D01*
X-1893Y-1690D01*
X-1904D01*
X-1910Y-1684D01*
X-1875Y-1655D02*
Y-1678D01*
X-1863Y-1690D01*
X-1852Y-1678D01*
Y-1655D01*
X-1815Y-1930D02*
Y-1953D01*
X-1803Y-1965D01*
X-1792Y-1953D01*
Y-1930D01*
X-1780Y-1965D02*
X-1768D01*
X-1774D01*
Y-1942D01*
X-1780D01*
X-1751Y-1965D02*
Y-1942D01*
X-1733D01*
X-1728Y-1948D01*
Y-1965D01*
X-1672Y-1936D02*
X-1678Y-1930D01*
X-1689D01*
X-1695Y-1936D01*
Y-1959D01*
X-1689Y-1965D01*
X-1678D01*
X-1672Y-1959D01*
Y-1948D01*
X-1683D01*
X-1660Y-1965D02*
Y-1930D01*
X-1637Y-1965D01*
Y-1930D01*
X-1625D02*
Y-1965D01*
X-1608D01*
X-1602Y-1959D01*
Y-1936D01*
X-1608Y-1930D01*
X-1625D01*
X-1542Y-1936D02*
X-1548Y-1930D01*
X-1559D01*
X-1565Y-1936D01*
Y-1942D01*
X-1559Y-1948D01*
X-1548D01*
X-1542Y-1953D01*
Y-1959D01*
X-1548Y-1965D01*
X-1559D01*
X-1565Y-1959D01*
X-1507Y-1930D02*
X-1530D01*
Y-1948D01*
X-1518Y-1942D01*
X-1513D01*
X-1507Y-1948D01*
Y-1959D01*
X-1513Y-1965D01*
X-1524D01*
X-1530Y-1959D01*
X-1337Y-1934D02*
X-1343Y-1928D01*
X-1354D01*
X-1360Y-1934D01*
Y-1957D01*
X-1354Y-1963D01*
X-1343D01*
X-1337Y-1957D01*
Y-1946D01*
X-1348D01*
X-1325Y-1963D02*
Y-1928D01*
X-1302Y-1963D01*
Y-1928D01*
X-1290D02*
Y-1963D01*
X-1273D01*
X-1267Y-1957D01*
Y-1934D01*
X-1273Y-1928D01*
X-1290D01*
X-1110D02*
X-1087D01*
X-1098D01*
Y-1963D01*
X-1207Y-1934D02*
X-1213Y-1928D01*
X-1224D01*
X-1230Y-1934D01*
Y-1940D01*
X-1224Y-1946D01*
X-1213D01*
X-1207Y-1951D01*
Y-1957D01*
X-1213Y-1963D01*
X-1224D01*
X-1230Y-1957D01*
X-1195Y-1963D02*
X-1183D01*
X-1189D01*
Y-1928D01*
X-1195Y-1934D01*
X-1166D02*
X-1160Y-1928D01*
X-1148D01*
X-1143Y-1934D01*
Y-1957D01*
X-1148Y-1963D01*
X-1160D01*
X-1166Y-1957D01*
Y-1934D01*
X-1480Y-1928D02*
Y-1951D01*
X-1468Y-1963D01*
X-1457Y-1951D01*
Y-1928D01*
X-1445Y-1963D02*
X-1433D01*
X-1439D01*
Y-1940D01*
X-1445D01*
X-1416Y-1963D02*
Y-1940D01*
X-1398D01*
X-1393Y-1946D01*
Y-1963D01*
X-377Y-1931D02*
X-383Y-1925D01*
X-394D01*
X-400Y-1931D01*
Y-1954D01*
X-394Y-1960D01*
X-383D01*
X-377Y-1954D01*
Y-1943D01*
X-388D01*
X-365Y-1960D02*
Y-1925D01*
X-342Y-1960D01*
Y-1925D01*
X-330D02*
Y-1960D01*
X-313D01*
X-307Y-1954D01*
Y-1931D01*
X-313Y-1925D01*
X-330D01*
X-237Y-1931D02*
X-243Y-1925D01*
X-254D01*
X-260Y-1931D01*
Y-1937D01*
X-254Y-1943D01*
X-243D01*
X-237Y-1948D01*
Y-1954D01*
X-243Y-1960D01*
X-254D01*
X-260Y-1954D01*
X-225Y-1931D02*
X-219Y-1925D01*
X-208D01*
X-202Y-1931D01*
Y-1937D01*
X-208Y-1943D01*
X-213D01*
X-208D01*
X-202Y-1948D01*
Y-1954D01*
X-208Y-1960D01*
X-219D01*
X-225Y-1954D01*
X-520Y-1923D02*
Y-1946D01*
X-508Y-1958D01*
X-497Y-1946D01*
Y-1923D01*
X-485Y-1958D02*
X-473D01*
X-479D01*
Y-1935D01*
X-485D01*
X-456Y-1958D02*
Y-1935D01*
X-438D01*
X-433Y-1941D01*
Y-1958D01*
D40*
X3426Y36D02*
Y61D01*
X2410Y2378D02*
X2427Y2360D01*
X36Y-1851D02*
X61D01*
X2478Y-2309D02*
X2496Y-2291D01*
X-3426Y-61D02*
Y-36D01*
X-2427Y-2360D02*
X-2410Y-2378D01*
X-61Y1854D02*
X-36D01*
X-2496Y2289D02*
X-2478Y2307D01*
X1013Y1815D02*
G03*
X1013Y1815I-63J0D01*
G01*
X-887Y1565D02*
G03*
X-887Y1565I-63J0D01*
G01*
X-287Y615D02*
G03*
X-287Y615I-63J0D01*
G01*
X1013Y-1435D02*
G03*
X1013Y-1435I-63J0D01*
G01*
X813Y615D02*
G03*
X813Y615I-63J0D01*
G01*
X-887Y-1385D02*
G03*
X-887Y-1385I-63J0D01*
G01*
X2869Y2521D02*
G03*
X2450Y2635I-296J-260D01*
G01*
X2869Y-2521D02*
G03*
X2869Y2521I-2869J2521D01*
G01*
X2450Y-2635D02*
G03*
X2869Y-2521I123J374D01*
G01*
X2450Y-2635D02*
G03*
X-2450Y-2635I-2450J-7483D01*
G01*
X-2869Y-2521D02*
G03*
X-2450Y-2635I296J260D01*
G01*
X-2869Y2521D02*
G03*
X-2869Y-2521I2869J-2521D01*
G01*
X-2450Y2635D02*
G03*
X-2869Y2521I-123J-374D01*
G01*
X-2450Y2635D02*
G03*
X2450Y2635I2450J7483D01*
G01*
D53*
X3117Y-1008D02*
G03*
X3117Y-1008I-5J0D01*
G01*
X-3291Y-585D02*
G03*
X-3291Y-585I-5J0D01*
G01*
X1379Y1379D02*
G03*
X1379Y1379I-5J0D01*
G01*
X2825Y1674D02*
G03*
X2825Y1674I-5J0D01*
G01*
X2965D02*
G03*
X2965Y1674I-5J0D01*
G01*
X-458Y-680D02*
G03*
X-458Y-680I-5J0D01*
G01*
X-641Y-582D02*
G03*
X-641Y-582I-5J0D01*
G01*
X1759Y382D02*
G03*
X1759Y382I-5J0D01*
G01*
X2325Y1383D02*
G03*
X2325Y1383I-5J0D01*
G01*
X1845D02*
G03*
X1845Y1383I-5J0D01*
G01*
X-1810Y1398D02*
G03*
X-1810Y1398I-5J0D01*
G01*
X1759Y146D02*
G03*
X1759Y146I-5J0D01*
G01*
X-1502Y950D02*
G03*
X-1502Y950I-5J0D01*
G01*
X-1915Y-1627D02*
G03*
X-1915Y-1627I-5J0D01*
G01*
X-2075D02*
G03*
X-2075Y-1627I-5J0D01*
G01*
X-1930Y-279D02*
G03*
X-1930Y-279I-5J0D01*
G01*
X-2372Y-279D02*
G03*
X-2372Y-279I-5J0D01*
G01*
X-3000Y1725D02*
G03*
X-3000Y1725I-5J0D01*
G01*
X-109Y49D02*
G03*
X-109Y49I-5J0D01*
G01*
D54*
X-1715Y1332D02*
G03*
X-1715Y1332I-12J0D01*
G01*
X-1536Y853D02*
G03*
X-1536Y853I-12J0D01*
G01*
D55*
X-2170Y1210D02*
G03*
X-2010Y1210I80J0D01*
G01*
Y1507D02*
G03*
X-2170Y1507I-80J0D01*
G01*
X3037Y550D02*
G03*
X3037Y550I-157J0D01*
G01*
X3715Y-97D02*
G03*
X3715Y100I0J98D01*
G01*
X2726Y2470D02*
G03*
X2586Y2610I-70J70D01*
G01*
X-97Y-2140D02*
G03*
X100Y-2140I98J0D01*
G01*
X2589Y-2607D02*
G03*
X2728Y-2468I70J70D01*
G01*
X-3715Y97D02*
G03*
X-3715Y-100I0J-98D01*
G01*
X-2726Y-2470D02*
G03*
X-2586Y-2610I70J-70D01*
G01*
X97Y2143D02*
G03*
X-100Y2143I-98J0D01*
G01*
X-2589Y2605D02*
G03*
X-2728Y2466I-70J-70D01*
G01*
X481Y2117D02*
G03*
X363Y2140I-59J12D01*
G01*
X1510Y2164D02*
G03*
X1410Y2230I-50J33D01*
G01*
X3114Y2006D02*
G03*
X3048Y2106I-33J50D01*
G01*
X3641Y659D02*
G03*
X3618Y777I-12J59D01*
G01*
X3612Y-786D02*
G03*
X3635Y-668I12J59D01*
G01*
X3044Y-2105D02*
G03*
X3110Y-2005I33J50D01*
G01*
X1431Y-2239D02*
G03*
X1531Y-2173I50J33D01*
G01*
X359Y-2136D02*
G03*
X477Y-2113I59J12D01*
G01*
X-476Y-2107D02*
G03*
X-358Y-2130I59J-12D01*
G01*
X-1525Y-2169D02*
G03*
X-1425Y-2235I50J-33D01*
G01*
X-3119Y-2011D02*
G03*
X-3053Y-2111I33J-50D01*
G01*
X-3651Y-664D02*
G03*
X-3628Y-782I12J-59D01*
G01*
X-3632Y781D02*
G03*
X-3655Y663I-12J-59D01*
G01*
X-3054Y2115D02*
G03*
X-3120Y2015I-33J-50D01*
G01*
X-1439Y2224D02*
G03*
X-1539Y2157I-50J-33D01*
G01*
X-363Y2139D02*
G03*
X-481Y2116I-59J-12D01*
G01*
X3153Y-1059D02*
X3211D01*
X3153Y-957D02*
X3211D01*
X3153Y-1059D02*
Y-1041D01*
Y-975D02*
Y-957D01*
X-3255Y-636D02*
X-3197D01*
X-3255Y-534D02*
X-3197D01*
X-3255Y-636D02*
Y-618D01*
Y-552D02*
Y-534D01*
X-1462Y-1587D02*
X-1418D01*
X-1462Y-1526D02*
X-1418D01*
X-746Y-860D02*
X-702D01*
X-746Y-798D02*
X-702D01*
X-1462Y-1626D02*
X-1418D01*
X-1462Y-1687D02*
X-1418D01*
X-2150Y-1710D02*
X-1850D01*
X-2150Y-1810D02*
Y-1710D01*
Y-1810D02*
X-1850D01*
Y-1710D01*
X-2150Y-1830D02*
X-1850D01*
X-2150Y-1930D02*
Y-1830D01*
Y-1930D02*
X-1850D01*
Y-1830D01*
X1315Y1379D02*
Y1643D01*
X1205Y1379D02*
Y1643D01*
Y1379D02*
X1315D01*
X1205Y1643D02*
X1315D01*
X1178Y1851D02*
X1222D01*
X1178Y1789D02*
X1222D01*
X2118Y1851D02*
X2162D01*
X2118Y1789D02*
X2162D01*
X1638Y1851D02*
X1682D01*
X1638Y1789D02*
X1682D01*
X2825Y1471D02*
Y1649D01*
X2715Y1471D02*
Y1649D01*
X2814D02*
X2825D01*
X2814Y1471D02*
X2825D01*
X2715Y1649D02*
X2726D01*
X2715Y1471D02*
X2726D01*
X2548Y1851D02*
X2592D01*
X2548Y1789D02*
X2592D01*
X2965Y1471D02*
Y1649D01*
X2855Y1471D02*
Y1649D01*
X2954D02*
X2965D01*
X2954Y1471D02*
X2965D01*
X2855Y1649D02*
X2866D01*
X2855Y1471D02*
X2866D01*
X2152Y1228D02*
Y1272D01*
X2090Y1228D02*
Y1272D01*
X1983Y1228D02*
Y1272D01*
X2045Y1228D02*
Y1272D01*
X2844Y260D02*
X2876D01*
X2844Y320D02*
X2876D01*
X2208Y881D02*
X2252D01*
X2208Y819D02*
X2252D01*
X-562Y-629D02*
X-504D01*
X-562Y-731D02*
X-504D01*
Y-647D02*
Y-629D01*
Y-731D02*
Y-713D01*
X2208Y689D02*
X2252D01*
X2208Y751D02*
X2252D01*
X1669Y-1652D02*
Y-1608D01*
X1731Y-1652D02*
Y-1608D01*
X-745Y-531D02*
X-687D01*
X-745Y-633D02*
X-687D01*
Y-549D02*
Y-531D01*
Y-633D02*
Y-615D01*
X2972Y-15D02*
Y29D01*
X3034Y-15D02*
Y29D01*
X-3240Y335D02*
Y379D01*
X-3179Y335D02*
Y379D01*
X2875Y-16D02*
X2923D01*
X-3331Y336D02*
X-3283D01*
X-722Y1346D02*
X-678D01*
X-722Y1284D02*
X-678D01*
X-722Y1446D02*
X-678D01*
X-722Y1384D02*
X-678D01*
X-1420Y1214D02*
Y1246D01*
X-1360Y1214D02*
Y1246D01*
X1625Y588D02*
X1695D01*
X1625Y392D02*
X1695D01*
X1625D02*
Y588D01*
X1695Y392D02*
Y588D01*
X1991Y1449D02*
Y1480D01*
X1932Y1449D02*
Y1480D01*
X1520Y1438D02*
Y1470D01*
X1460Y1438D02*
Y1470D01*
X-682Y1949D02*
X-638D01*
X-682Y2011D02*
X-638D01*
X-1772Y2079D02*
X-1728D01*
X-1772Y2141D02*
X-1728D01*
X-3229Y1758D02*
Y1802D01*
X-3291Y1758D02*
Y1802D01*
X-3582Y461D02*
X-3538D01*
X-3582Y399D02*
X-3538D01*
X-3532Y-959D02*
X-3488D01*
X-3532Y-1021D02*
X-3488D01*
X-2862Y-2219D02*
X-2818D01*
X-2862Y-2281D02*
X-2818D01*
X-1145Y-2159D02*
X-1101D01*
X-1145Y-2221D02*
X-1101D01*
X-862Y-2071D02*
X-818D01*
X-862Y-2009D02*
X-818D01*
X668Y-2099D02*
X712D01*
X668Y-2161D02*
X712D01*
X1738Y-2149D02*
X1782D01*
X1738Y-2211D02*
X1782D01*
X3219Y-1802D02*
Y-1758D01*
X3281Y-1802D02*
Y-1758D01*
X3518Y-511D02*
X3562D01*
X3518Y-449D02*
X3562D01*
X3498Y909D02*
X3542D01*
X3498Y971D02*
X3542D01*
X2646Y2070D02*
Y2114D01*
X2584Y2070D02*
Y2114D01*
X1178Y1989D02*
X1222D01*
X1178Y2051D02*
X1222D01*
X333Y1960D02*
X376D01*
X333Y1899D02*
X376D01*
X2261Y1383D02*
Y1646D01*
X2151Y1383D02*
Y1646D01*
Y1383D02*
X2261D01*
X2151Y1646D02*
X2261D01*
X1781Y1383D02*
Y1646D01*
X1671Y1383D02*
Y1646D01*
Y1383D02*
X1781D01*
X1671Y1646D02*
X1781D01*
X-1766Y1139D02*
Y1371D01*
X-1534Y1139D02*
Y1371D01*
X-1766D02*
X-1534D01*
X-1766Y1139D02*
X-1534D01*
X-1961Y1448D02*
Y1492D01*
X-1899Y1448D02*
Y1492D01*
X-2170Y1210D02*
Y1507D01*
X-2010Y1210D02*
Y1507D01*
X-2040Y1780D02*
Y1880D01*
X-1440Y1780D02*
Y1880D01*
X-2040Y1780D02*
X-1440D01*
X-2040Y1880D02*
X-1440D01*
X-2281Y1703D02*
Y1747D01*
X-2219Y1703D02*
Y1747D01*
X-2281Y1493D02*
Y1537D01*
X-2219Y1493D02*
Y1537D01*
X1391Y218D02*
Y262D01*
X1329Y218D02*
Y262D01*
X1476Y433D02*
Y477D01*
X1414Y433D02*
Y477D01*
X1625Y353D02*
X1695D01*
X1625Y157D02*
X1695D01*
X1625D02*
Y353D01*
X1695Y157D02*
Y353D01*
X1844Y423D02*
Y467D01*
X1906Y423D02*
Y467D01*
Y213D02*
Y257D01*
X1844Y213D02*
Y257D01*
X2665Y-1430D02*
X3035D01*
Y-1230D01*
X2665D02*
X3035D01*
X2665Y-1430D02*
Y-1230D01*
X1944Y213D02*
Y257D01*
X2006Y213D02*
Y257D01*
X2098Y-1291D02*
X2142D01*
X2098Y-1229D02*
X2142D01*
X2338Y-1291D02*
X2382D01*
X2338Y-1229D02*
X2382D01*
X-2132Y-1281D02*
X-2088D01*
X-2132Y-1219D02*
X-2088D01*
X-1878Y-1281D02*
X-1834D01*
X-1878Y-1219D02*
X-1834D01*
X-505Y-180D02*
Y120D01*
Y-180D02*
X-455D01*
X-505Y120D02*
X-455D01*
Y-180D02*
Y120D01*
X-638Y87D02*
X-505D01*
X-655Y70D02*
X-638Y87D01*
X-655Y70D02*
X-638Y53D01*
X-505D01*
X-638Y-13D02*
X-505D01*
X-655Y-30D02*
X-638Y-13D01*
X-655Y-30D02*
X-638Y-47D01*
X-505D01*
X-638Y-113D02*
X-505D01*
X-655Y-130D02*
X-638Y-113D01*
X-655Y-130D02*
X-638Y-147D01*
X-505D01*
X2205Y-35D02*
Y65D01*
X1905Y-35D02*
X2205D01*
X1905D02*
Y65D01*
X2205D01*
X1743Y-16D02*
X1787D01*
X1743Y46D02*
X1787D01*
X1409Y-1652D02*
Y-1608D01*
X1471Y-1652D02*
Y-1608D01*
X-1843Y735D02*
Y893D01*
X-1509Y735D02*
Y893D01*
X-1843Y735D02*
X-1509D01*
X-1843Y893D02*
X-1509D01*
X1231Y-1652D02*
Y-1608D01*
X1169Y-1652D02*
Y-1608D01*
X1304Y1290D02*
X1336D01*
X1304Y1350D02*
X1336D01*
X-1971Y-1586D02*
X-1953D01*
X-1887D02*
X-1869D01*
X-1971D02*
Y-1528D01*
X-1869Y-1586D02*
Y-1528D01*
X-2131Y-1586D02*
X-2113D01*
X-2047D02*
X-2029D01*
X-2131D02*
Y-1528D01*
X-2029Y-1586D02*
Y-1528D01*
X3518Y-331D02*
X3562D01*
X3518Y-269D02*
X3562D01*
X-1462Y63D02*
Y107D01*
X-1400Y63D02*
Y107D01*
X-1372Y63D02*
Y107D01*
X-1310Y63D02*
Y107D01*
X2479Y2067D02*
Y2111D01*
X2541Y2067D02*
Y2111D01*
X-1742Y63D02*
Y107D01*
X-1680Y63D02*
Y107D01*
X-1832Y63D02*
Y107D01*
X-1770Y63D02*
Y107D01*
X-1323Y214D02*
X-1279D01*
X-1323Y276D02*
X-1279D01*
X-1863D02*
X-1819D01*
X-1863Y214D02*
X-1819D01*
X-1282Y63D02*
Y107D01*
X-1220Y63D02*
Y107D01*
X-1922Y63D02*
Y107D01*
X-1860Y63D02*
Y107D01*
X-862Y-1881D02*
X-818D01*
X-862Y-1943D02*
X-818D01*
X-1680Y-477D02*
Y-433D01*
X-1742Y-477D02*
Y-433D01*
X-1770Y-477D02*
Y-433D01*
X-1832Y-477D02*
Y-433D01*
X2222Y-2253D02*
X2266D01*
X2222Y-2314D02*
X2266D01*
X-1400Y-477D02*
Y-433D01*
X-1462Y-477D02*
Y-433D01*
X-1310Y-477D02*
Y-433D01*
X-1372Y-477D02*
Y-433D01*
X-1863Y-584D02*
X-1819D01*
X-1863Y-646D02*
X-1819D01*
X-1323D02*
X-1279D01*
X-1323Y-584D02*
X-1279D01*
X-1924Y-220D02*
X-1578D01*
X-1924Y-150D02*
X-1578D01*
X-1924Y-220D02*
Y-150D01*
X-1578Y-220D02*
Y-150D01*
X-1860Y-477D02*
Y-433D01*
X-1922Y-477D02*
Y-433D01*
X-1220Y-477D02*
Y-433D01*
X-1282Y-477D02*
Y-433D01*
X-3582Y245D02*
X-3538D01*
X-3582Y306D02*
X-3538D01*
X-2264Y58D02*
Y102D01*
X-2203Y58D02*
Y102D01*
X-2174Y58D02*
Y102D01*
X-2113Y58D02*
Y102D01*
X-2463Y-2206D02*
X-2419D01*
X-2463Y-2144D02*
X-2419D01*
X-2524Y58D02*
Y102D01*
X-2463Y58D02*
Y102D01*
X-2614Y58D02*
Y102D01*
X-2553Y58D02*
Y102D01*
X-2122Y215D02*
X-2078D01*
X-2122Y276D02*
X-2078D01*
X-2652D02*
X-2608D01*
X-2652Y215D02*
X-2608D01*
X-2084Y58D02*
Y102D01*
X-2023Y58D02*
Y102D01*
X-2704Y58D02*
Y102D01*
X-2643Y58D02*
Y102D01*
X-396Y1960D02*
X-352D01*
X-396Y1899D02*
X-352D01*
X-2246Y2253D02*
X-2203D01*
X-2246Y2314D02*
X-2203D01*
X-2203Y-482D02*
Y-438D01*
X-2264Y-482D02*
Y-438D01*
X-2113Y-482D02*
Y-438D01*
X-2174Y-482D02*
Y-438D01*
X-2127Y-645D02*
X-2083D01*
X-2127Y-584D02*
X-2083D01*
X-2367Y-220D02*
X-2020D01*
X-2367Y-149D02*
X-2020D01*
X-2367Y-220D02*
Y-149D01*
X-2020Y-220D02*
Y-149D01*
X-2023Y-482D02*
Y-438D01*
X-2084Y-482D02*
Y-438D01*
X-2643Y-482D02*
Y-438D01*
X-2704Y-482D02*
Y-438D01*
X-2647Y-584D02*
X-2603D01*
X-2647Y-645D02*
X-2603D01*
X-2463Y-482D02*
Y-438D01*
X-2524Y-482D02*
Y-438D01*
X-2553Y-482D02*
Y-438D01*
X-2614Y-482D02*
Y-438D01*
X-1464Y-185D02*
X-1416D01*
X-2524Y-190D02*
X-2476D01*
X2376Y-1002D02*
X2572D01*
X2372Y-999D02*
X2376Y-1002D01*
X2372Y-999D02*
Y998D01*
X2572D01*
Y-1002D02*
Y998D01*
X-2811Y1731D02*
Y1775D01*
X-2749Y1731D02*
Y1775D01*
X-2964Y1758D02*
Y1776D01*
Y1674D02*
Y1692D01*
Y1776D02*
X-2906D01*
X-2964Y1674D02*
X-2906D01*
X-79Y-79D02*
Y-60D01*
Y-79D02*
X-60D01*
X60D02*
X79D01*
Y-60D01*
Y60D02*
Y79D01*
X60D02*
X79D01*
X-79D02*
X-60D01*
X-79Y60D02*
Y79D01*
D56*
X-161Y2200D02*
G03*
X-161Y2200I-39J0D01*
G01*
X219Y-2100D02*
G03*
X219Y-2100I-39J0D01*
G01*
X-1241Y2300D02*
G03*
X-1241Y2300I-39J0D01*
G01*
X1259Y-2220D02*
G03*
X1259Y-2220I-39J0D01*
G01*
X-2861Y2220D02*
G03*
X-2861Y2220I-39J0D01*
G01*
X-3501Y940D02*
G03*
X-3501Y940I-39J0D01*
G01*
X3599Y-960D02*
G03*
X3599Y-960I-39J0D01*
G01*
X-3581Y-480D02*
G03*
X-3581Y-480I-39J0D01*
G01*
X3679Y440D02*
G03*
X3679Y440I-39J0D01*
G01*
X-3121Y-1860D02*
G03*
X-3121Y-1860I-39J0D01*
G01*
X3241Y1813D02*
G03*
X3241Y1813I-39J0D01*
G01*
X-1661Y-2120D02*
G03*
X-1661Y-2120I-39J0D01*
G01*
X1539Y2340D02*
G03*
X1539Y2340I-39J0D01*
G01*
X-621Y-2060D02*
G03*
X-621Y-2060I-39J0D01*
G01*
X599Y2220D02*
G03*
X599Y2220I-39J0D01*
G01*
X2919Y-2220D02*
G03*
X2919Y-2220I-39J0D01*
G01*
X-1750Y1960D02*
G03*
X-1750Y1960I-39J0D01*
G01*
X-2091Y1825D02*
G03*
X-2091Y1825I-39J0D01*
G01*
X-2334Y1704D02*
G03*
X-2334Y1704I-39J0D01*
G01*
X195Y-125D02*
G03*
X195Y-125I-39J0D01*
G01*
X-1101Y-1250D02*
G03*
X-1101Y-1250I-39J0D01*
G01*
Y-1150D02*
G03*
X-1101Y-1150I-39J0D01*
G01*
X-606Y-1320D02*
X-394D01*
X-606D02*
Y-800D01*
X-394D01*
X768Y-1541D02*
Y-580D01*
X-394Y-800D02*
X-256Y-580D01*
X768D01*
X-394Y-800D02*
X354D01*
Y-1320D02*
Y-800D01*
X-394Y-1320D02*
X354D01*
X551Y-1540D02*
Y-1440D01*
X-249D02*
X551D01*
X-394Y-1320D02*
X-256Y-1541D01*
X768D01*
X551Y-680D02*
Y-580D01*
X-256Y-680D02*
X551D01*
X-256D02*
Y-580D01*
X-256Y-1440D02*
X-249D01*
X-256D02*
X-256D01*
Y-1541D02*
Y-1440D01*
X2619Y-1546D02*
Y1540D01*
X-2559Y-1663D02*
X2502D01*
X-2558Y1658D02*
X2501D01*
X-2676Y-1544D02*
Y1541D01*
D57*
X-2776Y1396D02*
G03*
X-2776Y1396I-236J0D01*
G01*
D58*
X3505Y100D02*
X3715D01*
X3505Y-114D02*
Y100D01*
Y-114D02*
X3545D01*
Y-97D01*
X3715D01*
X2438Y2461D02*
X2586Y2610D01*
X2438Y2461D02*
X2589Y2310D01*
X2617Y2338D01*
X2605Y2350D02*
X2617Y2338D01*
X2605Y2350D02*
X2726Y2470D01*
X100Y-2140D02*
Y-1930D01*
X-114D02*
X100D01*
X-114Y-1970D02*
Y-1930D01*
Y-1970D02*
X-97D01*
Y-2140D02*
Y-1970D01*
X2579Y-2320D02*
X2728Y-2468D01*
X2428Y-2471D02*
X2579Y-2320D01*
X2428Y-2471D02*
X2456Y-2499D01*
X2468Y-2487D01*
X2589Y-2607D01*
X-3715Y-100D02*
X-3505D01*
Y114D01*
X-3545D02*
X-3505D01*
X-3545Y97D02*
Y114D01*
X-3715Y97D02*
X-3545D01*
X-2586Y-2610D02*
X-2438Y-2461D01*
X-2589Y-2310D02*
X-2438Y-2461D01*
X-2617Y-2338D02*
X-2589Y-2310D01*
X-2617Y-2338D02*
X-2605Y-2350D01*
X-2726Y-2470D02*
X-2605Y-2350D01*
X-100Y1933D02*
Y2143D01*
Y1933D02*
X114D01*
Y1973D01*
X97D02*
X114D01*
X97D02*
Y2143D01*
X-2728Y2466D02*
X-2579Y2318D01*
X-2428Y2469D01*
X-2456Y2497D02*
X-2428Y2469D01*
X-2468Y2485D02*
X-2456Y2497D01*
X-2589Y2605D02*
X-2468Y2485D01*
X294Y2154D02*
X549Y2103D01*
X261Y2038D02*
X536Y1984D01*
X261Y2038D02*
X275Y2107D01*
X294Y2154D01*
X536Y1984D02*
X549Y2052D01*
X549Y2103D02*
X549Y2052D01*
X1548Y2078D02*
X1568Y2125D01*
X1509Y2020D02*
X1548Y2078D01*
X1315Y2233D02*
X1352Y2269D01*
X1277Y2175D02*
X1315Y2233D01*
X1277Y2175D02*
X1509Y2020D01*
X1352Y2269D02*
X1568Y2125D01*
X3009Y2164D02*
X3153Y1948D01*
X2903Y2106D02*
X3059Y1873D01*
X2903Y2106D02*
X2962Y2145D01*
X3009Y2164D01*
X3059Y1873D02*
X3117Y1912D01*
X3153Y1948D01*
X3608Y571D02*
X3655Y590D01*
X3539Y557D02*
X3608Y571D01*
X3553Y845D02*
X3604Y845D01*
X3485Y832D02*
X3553Y845D01*
X3485Y832D02*
X3539Y557D01*
X3604Y845D02*
X3655Y590D01*
X3598Y-854D02*
X3649Y-599D01*
X3479Y-841D02*
X3533Y-566D01*
X3602Y-580D01*
X3649Y-599D01*
X3479Y-841D02*
X3547Y-854D01*
X3598Y-854D01*
X2958Y-2143D02*
X3005Y-2163D01*
X2900Y-2104D02*
X2958Y-2143D01*
X3113Y-1910D02*
X3149Y-1947D01*
X3055Y-1872D02*
X3113Y-1910D01*
X2900Y-2104D02*
X3055Y-1872D01*
X3005Y-2163D02*
X3149Y-1947D01*
X1373Y-2278D02*
X1589Y-2134D01*
X1298Y-2184D02*
X1531Y-2028D01*
X1570Y-2087D01*
X1589Y-2134D01*
X1298Y-2184D02*
X1337Y-2242D01*
X1373Y-2278D01*
X271Y-2103D02*
X290Y-2150D01*
X257Y-2034D02*
X271Y-2103D01*
X545Y-2099D02*
X545Y-2048D01*
X532Y-1980D02*
X545Y-2048D01*
X257Y-2034D02*
X532Y-1980D01*
X290Y-2150D02*
X545Y-2099D01*
X-544Y-2093D02*
X-289Y-2144D01*
X-531Y-1974D02*
X-256Y-2028D01*
X-270Y-2097D02*
X-256Y-2028D01*
X-289Y-2144D02*
X-270Y-2097D01*
X-544Y-2042D02*
X-531Y-1974D01*
X-544Y-2042D02*
X-544Y-2093D01*
X-1583Y-2130D02*
X-1563Y-2083D01*
X-1524Y-2025D01*
X-1367Y-2274D02*
X-1330Y-2238D01*
X-1292Y-2180D01*
X-1524Y-2025D02*
X-1292Y-2180D01*
X-1583Y-2130D02*
X-1367Y-2274D01*
X-3158Y-1953D02*
X-3014Y-2169D01*
X-3064Y-1878D02*
X-2908Y-2111D01*
X-2967Y-2150D02*
X-2908Y-2111D01*
X-3014Y-2169D02*
X-2967Y-2150D01*
X-3122Y-1917D02*
X-3064Y-1878D01*
X-3158Y-1953D02*
X-3122Y-1917D01*
X-3665Y-595D02*
X-3618Y-576D01*
X-3549Y-562D01*
X-3614Y-850D02*
X-3563Y-850D01*
X-3495Y-837D01*
X-3549Y-562D02*
X-3495Y-837D01*
X-3665Y-595D02*
X-3614Y-850D01*
X-3669Y594D02*
X-3618Y849D01*
X-3553Y561D02*
X-3499Y836D01*
X-3622Y575D02*
X-3553Y561D01*
X-3669Y594D02*
X-3622Y575D01*
X-3567Y849D02*
X-3499Y836D01*
X-3618Y849D02*
X-3567Y849D01*
X-3015Y2173D02*
X-2968Y2153D01*
X-2910Y2114D01*
X-3159Y1957D02*
X-3123Y1920D01*
X-3065Y1882D01*
X-2910Y2114D01*
X-3159Y1957D02*
X-3015Y2173D01*
X-1597Y2119D02*
X-1381Y2263D01*
X-1539Y2013D02*
X-1306Y2169D01*
X-1578Y2071D02*
X-1539Y2013D01*
X-1597Y2119D02*
X-1578Y2071D01*
X-1345Y2227D02*
X-1306Y2169D01*
X-1381Y2263D02*
X-1345Y2227D01*
X-294Y2153D02*
X-275Y2106D01*
X-261Y2037D01*
X-549Y2051D02*
X-549Y2102D01*
X-549Y2051D02*
X-536Y1983D01*
X-261Y2037D01*
X-549Y2102D02*
X-294Y2153D01*
D59*
X-3177Y1341D02*
X-3142D01*
D60*
X3096Y562D02*
X3072D01*
X3084Y550D02*
Y574D01*
M02*
