%FSLAX23Y23*%
%MOIN*%
G70*
G01*
G75*
G04 Layer_Color=16711935*
%ADD10C,0.008*%
%ADD11R,0.037X0.035*%
%ADD12R,0.037X0.035*%
%ADD13R,0.045X0.069*%
%ADD14R,0.094X0.039*%
%ADD15R,0.094X0.130*%
%ADD16R,0.047X0.047*%
%ADD17R,0.057X0.094*%
%ADD18R,0.069X0.045*%
%ADD19R,0.043X0.067*%
%ADD20R,0.047X0.047*%
%ADD21R,0.050X0.100*%
%ADD22R,0.055X0.047*%
%ADD23R,0.055X0.043*%
%ADD24R,0.067X0.043*%
%ADD25O,0.087X0.024*%
%ADD26R,0.043X0.055*%
%ADD27O,0.065X0.022*%
%ADD28O,0.022X0.065*%
%ADD29O,0.010X0.083*%
%ADD30R,0.035X0.037*%
%ADD31R,0.035X0.037*%
%ADD32O,0.024X0.087*%
%ADD33C,0.059*%
%ADD34R,0.010X0.035*%
%ADD35R,0.035X0.010*%
%ADD36C,0.010*%
%ADD37C,0.020*%
%ADD38C,0.012*%
%ADD39C,0.015*%
%ADD40C,0.005*%
%ADD41R,0.059X0.059*%
%ADD42R,0.047X0.047*%
%ADD43C,0.047*%
%ADD44R,0.059X0.059*%
%ADD45R,0.047X0.047*%
%ADD46C,0.060*%
%ADD47R,0.060X0.060*%
%ADD48C,0.063*%
%ADD49C,0.039*%
%ADD50C,0.051*%
%ADD51C,0.079*%
%ADD52C,0.024*%
%ADD53C,0.010*%
%ADD54C,0.024*%
%ADD55C,0.008*%
%ADD56C,0.004*%
%ADD57C,0.016*%
%ADD58C,0.007*%
%ADD59C,0.020*%
%ADD60C,0.006*%
%ADD61R,0.045X0.043*%
%ADD62R,0.045X0.043*%
%ADD63R,0.053X0.077*%
%ADD64R,0.102X0.047*%
%ADD65R,0.102X0.138*%
%ADD66R,0.055X0.055*%
%ADD67R,0.065X0.102*%
%ADD68R,0.077X0.053*%
%ADD69R,0.051X0.075*%
%ADD70R,0.055X0.055*%
%ADD71R,0.058X0.108*%
%ADD72R,0.063X0.055*%
%ADD73R,0.063X0.051*%
%ADD74R,0.075X0.051*%
%ADD75O,0.095X0.032*%
%ADD76R,0.051X0.063*%
%ADD77O,0.073X0.030*%
%ADD78O,0.030X0.073*%
%ADD79O,0.018X0.091*%
%ADD80R,0.043X0.045*%
%ADD81R,0.043X0.045*%
%ADD82O,0.032X0.095*%
%ADD83C,0.067*%
%ADD84R,0.018X0.043*%
%ADD85R,0.043X0.018*%
%ADD86R,0.067X0.067*%
%ADD87R,0.055X0.055*%
%ADD88C,0.055*%
%ADD89R,0.067X0.067*%
%ADD90R,0.055X0.055*%
%ADD91C,0.068*%
%ADD92R,0.068X0.068*%
%ADD93C,0.071*%
%ADD94C,0.047*%
%ADD95C,0.059*%
%ADD96C,0.087*%
%ADD97C,0.032*%
D40*
X1013Y1815D02*
G03*
X1013Y1815I-63J0D01*
G01*
X-887Y1565D02*
G03*
X-887Y1565I-63J0D01*
G01*
X-287Y615D02*
G03*
X-287Y615I-63J0D01*
G01*
X1013Y-1435D02*
G03*
X1013Y-1435I-63J0D01*
G01*
X813Y615D02*
G03*
X813Y615I-63J0D01*
G01*
X-887Y-1385D02*
G03*
X-887Y-1385I-63J0D01*
G01*
X2869Y2521D02*
G03*
X2450Y2635I-296J-260D01*
G01*
X2869Y-2521D02*
G03*
X2869Y2521I-2869J2521D01*
G01*
X2450Y-2635D02*
G03*
X2869Y-2521I123J374D01*
G01*
X2450Y-2635D02*
G03*
X-2450Y-2635I-2450J-7483D01*
G01*
X-2869Y-2521D02*
G03*
X-2450Y-2635I296J260D01*
G01*
X-2869Y2521D02*
G03*
X-2869Y-2521I2869J-2521D01*
G01*
X-2450Y2635D02*
G03*
X-2869Y2521I-123J-374D01*
G01*
X-2450Y2635D02*
G03*
X2450Y2635I2450J7483D01*
G01*
D83*
X1115Y-32D02*
D03*
Y68D02*
D03*
X1112Y311D02*
D03*
Y411D02*
D03*
X-2000Y-1760D02*
D03*
X-2100D02*
D03*
X-2000Y-1880D02*
D03*
X-2100D02*
D03*
X-314Y2098D02*
D03*
X-412Y2078D02*
D03*
X-510Y2059D02*
D03*
X-1378Y2205D02*
D03*
X-1461Y2149D02*
D03*
X-1544Y2094D02*
D03*
X-2990Y2120D02*
D03*
X-3046Y2037D02*
D03*
X-3101Y1954D02*
D03*
X-3575Y810D02*
D03*
X-3595Y712D02*
D03*
X-3614Y614D02*
D03*
X-3610Y-615D02*
D03*
X-3590Y-713D02*
D03*
X-3571Y-811D02*
D03*
X-3100Y-1950D02*
D03*
X-3044Y-2033D02*
D03*
X-2989Y-2116D02*
D03*
X-1530Y-2105D02*
D03*
X-1447Y-2161D02*
D03*
X-1364Y-2216D02*
D03*
X-505Y-2050D02*
D03*
X-407Y-2070D02*
D03*
X-309Y-2089D02*
D03*
X310Y-2095D02*
D03*
X408Y-2075D02*
D03*
X506Y-2056D02*
D03*
X1370Y-2220D02*
D03*
X1453Y-2164D02*
D03*
X1536Y-2109D02*
D03*
X2980Y-2110D02*
D03*
X3036Y-2027D02*
D03*
X3091Y-1944D02*
D03*
X3555Y-815D02*
D03*
X3575Y-717D02*
D03*
X3594Y-619D02*
D03*
X3600Y610D02*
D03*
X3580Y708D02*
D03*
X3561Y806D02*
D03*
X3095Y1945D02*
D03*
X3039Y2028D02*
D03*
X2984Y2111D02*
D03*
X1515Y2100D02*
D03*
X1432Y2156D02*
D03*
X1349Y2211D02*
D03*
X510Y2060D02*
D03*
X412Y2080D02*
D03*
X314Y2099D02*
D03*
X-1590Y1830D02*
D03*
X-1690D02*
D03*
X-1790D02*
D03*
X-1890D02*
D03*
X-1990D02*
D03*
X2850Y-1330D02*
D03*
X2950D02*
D03*
X-405Y-30D02*
D03*
Y-130D02*
D03*
X1955Y15D02*
D03*
X2055D02*
D03*
X-1969Y2165D02*
D03*
X1969D02*
D03*
Y-2165D02*
D03*
X-1969D02*
D03*
X2811Y550D02*
D03*
X2422Y-952D02*
D03*
X2522Y-852D02*
D03*
X2422D02*
D03*
X2522Y-752D02*
D03*
X2422D02*
D03*
X2522Y-652D02*
D03*
X2422D02*
D03*
X2522Y-552D02*
D03*
X2422D02*
D03*
X2522Y-452D02*
D03*
X2422D02*
D03*
X2522Y-352D02*
D03*
X2422D02*
D03*
X2522Y-252D02*
D03*
X2422D02*
D03*
X2522Y-152D02*
D03*
X2422D02*
D03*
X2522Y-52D02*
D03*
X2422D02*
D03*
X2522Y48D02*
D03*
X2422D02*
D03*
X2522Y148D02*
D03*
X2422D02*
D03*
X2522Y248D02*
D03*
X2422D02*
D03*
X2522Y348D02*
D03*
X2422D02*
D03*
X2522Y448D02*
D03*
X2422D02*
D03*
X2522Y548D02*
D03*
X2422D02*
D03*
X2522Y648D02*
D03*
X2422D02*
D03*
X2522Y748D02*
D03*
X2422D02*
D03*
X2522Y848D02*
D03*
X2422D02*
D03*
X2522Y948D02*
D03*
X2422D02*
D03*
D86*
X1115Y-132D02*
D03*
X1112Y211D02*
D03*
X-405Y70D02*
D03*
X2522Y-952D02*
D03*
D87*
X-2460Y1060D02*
D03*
X-209Y-1493D02*
D03*
X-1160Y-1840D02*
D03*
X540D02*
D03*
X-1140Y2060D02*
D03*
X2820Y1270D02*
D03*
X2890Y1070D02*
D03*
X2930Y-670D02*
D03*
Y-470D02*
D03*
Y-870D02*
D03*
X-1580Y-1840D02*
D03*
X-280D02*
D03*
X760Y2060D02*
D03*
X-1596Y-1412D02*
D03*
X2524Y1271D02*
D03*
D88*
X-2539Y1060D02*
D03*
X-130Y-1493D02*
D03*
X-51D02*
D03*
X28D02*
D03*
X106D02*
D03*
X185D02*
D03*
X264D02*
D03*
X343D02*
D03*
X421D02*
D03*
X500D02*
D03*
X500Y-627D02*
D03*
X421D02*
D03*
X343D02*
D03*
X264D02*
D03*
X185D02*
D03*
X106D02*
D03*
X28D02*
D03*
X-51D02*
D03*
X-130D02*
D03*
X-209D02*
D03*
X-1239Y-1840D02*
D03*
X-1317D02*
D03*
X-1396D02*
D03*
X3240Y481D02*
D03*
Y403D02*
D03*
Y324D02*
D03*
X461Y-1840D02*
D03*
X383D02*
D03*
X304D02*
D03*
X-2900Y-221D02*
D03*
Y-143D02*
D03*
Y-64D02*
D03*
X-1061Y2060D02*
D03*
X-983D02*
D03*
X-904D02*
D03*
X2899Y1270D02*
D03*
X2811Y1070D02*
D03*
X2851Y-670D02*
D03*
Y-470D02*
D03*
X-1190Y1301D02*
D03*
Y1223D02*
D03*
Y1144D02*
D03*
X2851Y-870D02*
D03*
X2921Y-1051D02*
D03*
Y839D02*
D03*
X1321D02*
D03*
Y-1051D02*
D03*
X-1311D02*
D03*
Y839D02*
D03*
X-2911D02*
D03*
Y-1051D02*
D03*
X-1659Y-1840D02*
D03*
X-1737D02*
D03*
X3220Y-459D02*
D03*
Y-537D02*
D03*
X-359Y-1840D02*
D03*
X-437D02*
D03*
X-2900Y199D02*
D03*
Y277D02*
D03*
X839Y2060D02*
D03*
X917D02*
D03*
X3465Y-50D02*
D03*
Y50D02*
D03*
X2516Y2327D02*
D03*
X2445Y2398D02*
D03*
X-50Y-1890D02*
D03*
X50D02*
D03*
X2445Y-2398D02*
D03*
X2516Y-2327D02*
D03*
X-3465Y50D02*
D03*
Y-50D02*
D03*
X-2516Y-2327D02*
D03*
X-2445Y-2398D02*
D03*
X50Y1893D02*
D03*
X-50D02*
D03*
X-2445Y2395D02*
D03*
X-2516Y2325D02*
D03*
X-1439Y-1412D02*
D03*
X-1517D02*
D03*
X-2558Y1540D02*
D03*
Y-1545D02*
D03*
X2501D02*
D03*
X2501Y1540D02*
D03*
X2603Y1271D02*
D03*
X-2860Y-470D02*
D03*
X3179Y-799D02*
D03*
D89*
X-1900Y-1760D02*
D03*
Y-1880D02*
D03*
X-1490Y1830D02*
D03*
X2750Y-1330D02*
D03*
X2155Y15D02*
D03*
X2949Y550D02*
D03*
D90*
X3240Y560D02*
D03*
X-2900Y-300D02*
D03*
X-1190Y1380D02*
D03*
X3220Y-380D02*
D03*
X-2900Y120D02*
D03*
X-2860Y-549D02*
D03*
X3179Y-720D02*
D03*
D91*
X750Y1715D02*
D03*
Y1815D02*
D03*
X650Y1715D02*
D03*
Y1815D02*
D03*
X550Y1715D02*
D03*
Y1815D02*
D03*
X450Y1715D02*
D03*
Y1815D02*
D03*
X350Y1715D02*
D03*
Y1815D02*
D03*
X250Y1715D02*
D03*
Y1815D02*
D03*
X150Y1715D02*
D03*
Y1815D02*
D03*
X50Y1715D02*
D03*
Y1815D02*
D03*
X-50D02*
D03*
Y1715D02*
D03*
X-150D02*
D03*
Y1815D02*
D03*
X-250Y1715D02*
D03*
Y1815D02*
D03*
X-350Y1715D02*
D03*
Y1815D02*
D03*
X-450Y1715D02*
D03*
Y1815D02*
D03*
X-550Y1715D02*
D03*
Y1815D02*
D03*
X-650Y1715D02*
D03*
Y1815D02*
D03*
X-750Y1715D02*
D03*
Y1815D02*
D03*
X-850Y1715D02*
D03*
Y1815D02*
D03*
X-950Y1715D02*
D03*
Y1815D02*
D03*
Y215D02*
D03*
Y115D02*
D03*
Y15D02*
D03*
Y-85D02*
D03*
Y-185D02*
D03*
Y415D02*
D03*
Y315D02*
D03*
Y-645D02*
D03*
Y-745D02*
D03*
Y-845D02*
D03*
Y-945D02*
D03*
Y-1045D02*
D03*
Y-445D02*
D03*
Y-545D02*
D03*
X950Y-685D02*
D03*
Y-585D02*
D03*
X-950Y1115D02*
D03*
Y1015D02*
D03*
Y915D02*
D03*
Y815D02*
D03*
Y715D02*
D03*
Y1315D02*
D03*
Y1215D02*
D03*
X950Y315D02*
D03*
Y415D02*
D03*
Y515D02*
D03*
Y615D02*
D03*
Y715D02*
D03*
Y115D02*
D03*
Y215D02*
D03*
Y1215D02*
D03*
Y1315D02*
D03*
Y1415D02*
D03*
Y1515D02*
D03*
Y1615D02*
D03*
Y1015D02*
D03*
Y1115D02*
D03*
Y-785D02*
D03*
Y-885D02*
D03*
X-950Y-1145D02*
D03*
Y-1245D02*
D03*
X-150Y620D02*
D03*
Y520D02*
D03*
X-50Y620D02*
D03*
Y520D02*
D03*
X50Y620D02*
D03*
Y520D02*
D03*
X1661Y-1121D02*
D03*
X1861D02*
D03*
X1961D02*
D03*
X2061D02*
D03*
X1561D02*
D03*
X2161D02*
D03*
X2661D02*
D03*
X2561D02*
D03*
X2361D02*
D03*
X2261D02*
D03*
X-2571D02*
D03*
X-2371D02*
D03*
X-2271D02*
D03*
X-2171D02*
D03*
X-2671D02*
D03*
X-2071D02*
D03*
X-1571D02*
D03*
X-1671D02*
D03*
X-1871D02*
D03*
X-1971D02*
D03*
D92*
X-950Y515D02*
D03*
Y-345D02*
D03*
X950Y-185D02*
D03*
X-950Y1415D02*
D03*
X950Y15D02*
D03*
Y915D02*
D03*
D93*
X-950Y1565D02*
D03*
X950Y1815D02*
D03*
Y-1435D02*
D03*
X-950Y-1385D02*
D03*
D94*
X-2090Y1460D02*
D03*
Y1260D02*
D03*
D95*
X-2862Y1396D02*
D03*
X-3162D02*
D03*
D96*
X1860Y-1880D02*
D03*
X1040Y-1880D02*
D03*
D97*
X-1839Y1762D02*
D03*
X-1841Y1932D02*
D03*
M02*
