M48
;Layer_Color=9474304
;FILE_FORMAT=2:3
INCH,LZ
;TYPE=PLATED
T1F00S00C0.012
T2F00S00C0.024
T3F00S00C0.028
T4F00S00C0.030
T5F00S00C0.031
T6F00S00C0.035
T7F00S00C0.079
T8F00S00C0.126
;TYPE=NON_PLATED
T9F00S00C0.087
T10F00S00C0.118
%
T01
X0281Y-0184
X0285Y-0103
X0315Y-01009
X03382Y-01142
X03348Y-01209
X03298Y-01304
X03321Y-01337
X02295Y-00698
X02189Y-00729
X0179Y-0093
X01158Y-00927
X01123Y-00955
X0144Y-0156
X01886Y-01795
X00835Y-01735
X00805Y-01695
X0086Y-0166
X00748Y-01545
X00563Y-01453
X00595Y-0175
X00768Y-0188
X0067Y-02025
X00755Y-0213
X00304Y-01728
X0002Y-01242
X-00014Y-01146
X-00447Y-01757
X-00644Y-01831
X-00658Y-01486
X-0072Y-0133
X-00859Y-01306
X-00894Y-01271
X-0075Y-0098
X-0103Y-0092
X-0106Y-0095
X-011Y-0076
X-0114Y-0072
X-01259Y-0149
X-0123Y-0157
X-01239Y-01692
X-01305Y-0166
X-01396Y-01731
X-011Y-0178
X-01692Y-01932
X-01796Y-01929
X-01827Y-01486
X-01981Y-00671
X-02212Y-00677
X-0242Y-0072
X-029Y-0076
X-02962Y-01343
X-02805Y-01373
X-02363Y-01929
X-02323Y-00494
X-02403
X-025Y-00155
X-02751Y-00143
X-02754Y00049
X-02744Y00142
X-02406Y00113
X-02323Y00115
X-024Y00235
X-02231Y00273
X-0224Y008
X-031Y0058
X-0308Y0054
X-03078Y005
X-03057Y00471
X-03041Y0044
X-03027Y0041
X-03005Y00383
X-02993Y0035
X-02945Y00325
X-032Y00414
X-03235Y-00117
X-03392Y0
X-03261Y-00585
X-02165Y-00615
X-01776Y-0061
X-01614Y-00466
X-0153Y-00465
X-01365Y-00615
X-011Y-0054
X-01458Y-00159
X-01531Y00092
X-01606Y00092
X-01819Y0014
X-0178Y00245
X-01471Y00235
X-01418Y00523
X-0115Y0052
X-0119Y0042
X-00997Y00263
X-0134Y0072
X-0137Y0077
X-0156Y00875
X-01585Y0085
X-0164
X-0169
X-01665Y00875
X-01615
X-0177Y00885
X-0183Y00875
X-0194
X-0196Y008
X-0199Y0092
X-0216Y0024
X-02127Y0014
X-02177Y-00151
X-01982Y-00152
X-00261Y-005
X00268Y-00226
X0012Y-0005
X0002Y0004
X-00055Y00125
X00042Y00244
X0004Y00288
X00039Y00358
X-00261Y00395
X-00301Y00428
X-00326Y00473
X00061Y00798
X00064Y00837
X00063Y00876
X00062Y00913
X00246Y009
X00247Y00861
Y00824
X00246Y00789
X004Y00659
Y00604
X00399Y00566
X00423Y00281
X00422Y00245
X00695Y00018
X00676Y00516
X00697Y00615
X00768Y-00582
X00561Y-00519
X01525Y00027
X01475Y00176
X01754Y0018
X0179Y0028
X01753Y00355
X01755Y00465
X01567Y00515
X01977Y00445
X01895Y00295
X0222Y0049
X0217Y0072
X02314Y00733
X02275Y-00096
X02285Y-0014
X0226Y-0019
X02259Y-00585
X0209Y-00519
X01408Y00913
X02573Y00787
X02588Y00713
X02764Y00713
X02913Y0029
X0299Y00074
X02619Y-00345
X03322Y-00537
X0348Y-003
X03348Y0056
X03193Y01009
X0251Y02029
X02385Y02085
Y01818
X02297Y01891
X02092Y01638
Y01518
X0232Y01424
X0184
X01895Y01225
X01525Y01262
X01475Y01165
X01359Y00942
X01065
X01372Y01418
X01612Y01514
Y01638
X01423Y0182
X01878
X00919Y01914
X00842Y01852
X0041Y01904
X00761Y01263
X00735Y01165
X00246Y00939
X0006Y00951
X-00565Y01165
X-00672Y01009
X-0077Y0132
X-0074Y01425
X-00707Y01905
X-00906
X-0098Y0192
X-0105Y01816
X-0114Y018
X-01839Y01762
X-01841Y01932
X-021Y0212
X-01796Y01427
X-01851Y01364
X-01882Y0133
X-0175Y01345
Y0131
X-01746Y01275
X-0175Y0124
Y01207
X-01739Y01159
X-01695Y0119
X-01645Y0117
X-01714Y01021
X-01796Y01036
X-01841Y01048
X-01889Y01047
X-0184Y0095
X-01228Y0095
X-01215Y011
X-0169Y01485
X-01729Y01484
X-0225Y01575
X-02284Y02283
X-02512Y0208
X-02966Y0186
X-03146Y01102
T02
X-02516Y-02327
X-02445Y-02398
X02445
X02516Y-02327
X0005Y-0189
X-0005
X-03465Y-0005
Y0005
X03465
Y-0005
X02516Y02327
X02445Y02398
X0005Y01893
X-0005
X-0209Y0146
Y0126
X-02445Y02395
X-02516Y02325
T03
X-01364Y-02216
X0137Y-0222
X0298Y-0211
X03036Y-02027
X03091Y-01944
X03179Y-00799
Y-0072
X0293Y-0067
X02851
Y-0087
X0293
X03555Y-00815
X03575Y-00717
X01536Y-02109
X01453Y-02164
X00506Y-02056
X00408Y-02075
X0031Y-02095
X00304Y-0184
X00383
X00461
X0054
X-0028
X-00359
X-00437
X-00407Y-0207
X-00505Y-0205
X-00309Y-02089
X-0116Y-0184
X-01239
X-01317
X-01396
X-0158
X-01659
X-01737
X-0153Y-02105
X-01447Y-02161
X-01439Y-01412
X-01517
X-01596
X-031Y-0195
X-03044Y-02033
X-02989Y-02116
X-03571Y-00811
X-0359Y-00713
X-0361Y-00615
X-0286Y-00549
Y-0047
X-029Y-003
Y-00221
Y-00143
Y-00064
Y0012
Y00199
Y00277
X-03614Y00614
X-03595Y00712
X-03575Y0081
X0324Y0056
Y00481
Y00403
Y00324
X036Y0061
X0358Y00708
X03561Y00806
X03594Y-00619
X0322Y-00537
Y-00459
Y-0038
X0293Y-0047
X02851
X0289Y0107
X02811
X0282Y0127
X02899
X02603Y01271
X02524
X03095Y01945
X03039Y02028
X02984Y02111
X01515Y021
X01432Y02156
X01349Y02211
X00917Y0206
X00839
X0076
X0051
X00412Y0208
X00314Y02099
X-00314Y02098
X-00412Y02078
X-0051Y02059
X-00904Y0206
X-00983
X-01061
X-0114
X-01378Y02205
X-01461Y02149
X-01544Y02094
X-0119Y0138
Y01301
Y01223
Y01144
X-0246Y0106
X-02539
X-02862Y01396
X-03162
X-03101Y01954
X-03046Y02037
X-0299Y0212
T04
X02561Y-01121
X02661
X02361
X02261
X02161
X02061
X01961
X01861
X01661
X01561
X0095Y-00885
Y-00785
Y-00685
X-0095Y-00645
Y-00745
Y-00845
Y-00945
Y-01045
Y-01145
Y-01245
X-01571Y-01121
X-01671
X-01871
X-01971
X-02071
X-02171
X-02271
X-02371
X-02571
X-02671
X-0095Y-00545
Y-00445
Y-00345
Y-00185
Y-00085
Y00015
Y00115
Y00215
Y00315
Y00415
Y00515
Y00715
Y00815
Y00915
X-0015Y0062
Y0052
X-0005
Y0062
X0005
Y0052
X0095Y00515
Y00415
Y00315
Y00215
Y00115
Y00015
Y-00185
Y-00585
Y00615
Y00715
Y00915
Y01015
Y01115
Y01215
Y01315
Y01415
Y01515
Y01615
X0075Y01715
Y01815
X0065
Y01715
X0055
Y01815
X0045
Y01715
X0035
Y01815
X0025
Y01715
X0015
Y01815
X0005
Y01715
X-0005
Y01815
X-0015
Y01715
X-0025
Y01815
X-0035
Y01715
X-0045
Y01815
X-0055
Y01715
X-0065
Y01815
X-0075
Y01715
X-0085
Y01815
X-0095
Y01715
Y01415
Y01315
Y01215
Y01115
Y01015
T05
X-00209Y-01493
X-0013
X-00051
X00028
X00106
X00185
X00264
X00343
X00421
X005
X005Y-00627
X00421
X00343
X00264
X00185
X00106
X00028
X-00051
X-0013
X-00209
T06
X0275Y-0133
X0285
X0295
X02522Y-00952
Y-00852
Y-00752
Y-00652
X02422
Y-00752
Y-00852
Y-00952
X-019Y-0176
X-02
X-021
Y-0188
X-02
X-019
X-00405Y-0013
Y-0003
Y0007
X01115Y00068
Y-00032
Y-00132
X01112Y00211
Y00311
Y00411
X01955Y00015
X02055
X02155
X02422Y00048
Y-00052
Y-00152
Y-00252
Y-00352
Y-00452
Y-00552
Y00148
Y00248
Y00348
Y00448
Y00548
Y00648
Y00748
Y00848
X02522
Y00748
Y00648
Y00548
Y00448
Y00348
Y00248
Y00148
Y00048
Y-00052
Y-00152
Y-00252
Y-00352
Y-00452
Y-00552
X02811Y0055
X02949
X02522Y00948
X02422
X-0149Y0183
X-0159
X-0169
X-0179
X-0189
X-0199
T07
X0104Y-0188
X0186Y-0188
T08
X0095Y-01435
X-0095Y-01385
X0095Y01815
X-0095Y01565
T09
X02921Y-01051
X01321
X01969Y-02165
X-01969
X-01311Y-01051
X-02911
Y00839
X-01311
X01321
X02921
X01969Y02165
X-01969
T10
X02501Y-01545
X-02558
X02501Y0154
X-02558
M30
